<svg class="marks" width="458" height="369" viewBox="0 0 458 369" version="1.1" xmlns="http://www.w3.org/2000/svg" xmlns:xlink="http://www.w3.org/1999/xlink"><g transform="translate(52,29)"><g class="mark-group role-frame root"><g transform="translate(0,0)"><path class="background" d="M0.5,0.5h400v300h-400Z" style="fill: none; stroke: #ddd;"></path><g><g class="mark-group role-axis"><g transform="translate(0.5,300.5)"><path class="background" d="M0,0h0v0h0Z" style="pointer-events: none; fill: none;"></path><g><g class="mark-rule role-axis-grid" style="pointer-events: none;"><line transform="translate(0,-300)" x2="0" y2="300" style="fill: none; stroke: #ddd; stroke-width: 1; opacity: 1;"></line><line transform="translate(33,-300)" x2="0" y2="300" style="fill: none; stroke: #ddd; stroke-width: 1; opacity: 1;"></line><line transform="translate(67,-300)" x2="0" y2="300" style="fill: none; stroke: #ddd; stroke-width: 1; opacity: 1;"></line><line transform="translate(100,-300)" x2="0" y2="300" style="fill: none; stroke: #ddd; stroke-width: 1; opacity: 1;"></line><line transform="translate(133,-300)" x2="0" y2="300" style="fill: none; stroke: #ddd; stroke-width: 1; opacity: 1;"></line><line transform="translate(167,-300)" x2="0" y2="300" style="fill: none; stroke: #ddd; stroke-width: 1; opacity: 1;"></line><line transform="translate(200,-300)" x2="0" y2="300" style="fill: none; stroke: #ddd; stroke-width: 1; opacity: 1;"></line><line transform="translate(233,-300)" x2="0" y2="300" style="fill: none; stroke: #ddd; stroke-width: 1; opacity: 1;"></line><line transform="translate(267,-300)" x2="0" y2="300" style="fill: none; stroke: #ddd; stroke-width: 1; opacity: 1;"></line><line transform="translate(300,-300)" x2="0" y2="300" style="fill: none; stroke: #ddd; stroke-width: 1; opacity: 1;"></line><line transform="translate(333,-300)" x2="0" y2="300" style="fill: none; stroke: #ddd; stroke-width: 1; opacity: 1;"></line><line transform="translate(367,-300)" x2="0" y2="300" style="fill: none; stroke: #ddd; stroke-width: 1; opacity: 1;"></line><line transform="translate(400,-300)" x2="0" y2="300" style="fill: none; stroke: #ddd; stroke-width: 1; opacity: 1;"></line></g></g></g></g><g class="mark-group role-axis"><g transform="translate(0.5,0.5)"><path class="background" d="M0,0h0v0h0Z" style="pointer-events: none; fill: none;"></path><g><g class="mark-rule role-axis-grid" style="pointer-events: none;"><line transform="translate(0,300)" x2="400" y2="0" style="fill: none; stroke: #ddd; stroke-width: 1; opacity: 1;"></line><line transform="translate(0,273)" x2="400" y2="0" style="fill: none; stroke: #ddd; stroke-width: 1; opacity: 1;"></line><line transform="translate(0,245)" x2="400" y2="0" style="fill: none; stroke: #ddd; stroke-width: 1; opacity: 1;"></line><line transform="translate(0,218)" x2="400" y2="0" style="fill: none; stroke: #ddd; stroke-width: 1; opacity: 1;"></line><line transform="translate(0,191)" x2="400" y2="0" style="fill: none; stroke: #ddd; stroke-width: 1; opacity: 1;"></line><line transform="translate(0,164)" x2="400" y2="0" style="fill: none; stroke: #ddd; stroke-width: 1; opacity: 1;"></line><line transform="translate(0,136)" x2="400" y2="0" style="fill: none; stroke: #ddd; stroke-width: 1; opacity: 1;"></line><line transform="translate(0,109)" x2="400" y2="0" style="fill: none; stroke: #ddd; stroke-width: 1; opacity: 1;"></line><line transform="translate(0,82)" x2="400" y2="0" style="fill: none; stroke: #ddd; stroke-width: 1; opacity: 1;"></line><line transform="translate(0,55)" x2="400" y2="0" style="fill: none; stroke: #ddd; stroke-width: 1; opacity: 1;"></line><line transform="translate(0,27)" x2="400" y2="0" style="fill: none; stroke: #ddd; stroke-width: 1; opacity: 1;"></line><line transform="translate(0,0)" x2="400" y2="0" style="fill: none; stroke: #ddd; stroke-width: 1; opacity: 1;"></line></g></g></g></g><g class="mark-line role-mark marks"><path d="M367.5,23.67272314700216L367.3333333333333,31.854541450738907L367.1666666666667,44.94545073671776L367,39.49090520089328L366.83333333333337,53.672723594036995L366.66666666666663,50.94545082612473L366.5,65.12726921926847L366.33333333333337,66.76363288001582L366.1666666666667,66.76363288001582L366,65.12726921926847L365.8333333333333,66.76363288001582L365.6666666666667,67.30908743359831L365.5,66.76363288001582L365.3333333333333,61.30908734419131L365.1666666666667,61.30908734419131L365,63.49090555852115L364.83333333333337,63.49090555852115L364.66666666666663,63.49090555852115L364.5,64.03636011210355L364.33333333333337,66.76363288001582L364.1666666666667,65.12726921926847L364,62.345450998029946L363.8333333333333,60.70908733728257L363.6666666666667,60.16363278370014L363.5,60.16363278370014L363.3333333333333,64.52726921235978L363.1666666666667,63.981814658777296L363,63.981814658777296L362.8333333333333,61.79999644444746L362.66666666666663,58.52726912295279L362.5,58.52726912295279L362.33333333333337,58.52726912295279L362.1666666666667,49.79999626563355L362,42.709087069061695L361.8333333333333,44.345450729809016L361.6666666666667,50.290905365889756L361.5,45.38181438364765L361.3333333333333,52.47272358021954L361.1666666666667,52.47272358021954L361,54.654541794549374L360.8333333333333,54.109087240966886L360.66666666666663,50.83635991947219L360.5,48.10908715155992L360.33333333333337,48.10908715155992L360.16666666666663,47.56363259797749L360,50.83635991947219L359.8333333333333,45.92726893723014L359.6666666666667,48.10908715155992L359.5,49.19999625872481L359.3333333333333,59.01817822320896L359.1666666666667,65.56363286619842L359,62.83636009828609L358.8333333333333,64.47272375903347L358.66666666666663,65.56363286619842L358.5,77.01817849142986L358.33333333333337,72.10908750918782L358.16666666666663,72.10908750918782L358,72.10908750918782L357.8333333333333,74.83636027710006L357.6666666666667,81.38181492008948L357.5,75.92726938426497L357.3333333333333,75.92726938426497L357.1666666666667,81.92726947367191L357,80.83636036650702L356.8333333333333,72.10908750918782L356.6666666666667,83.56363313441926L356.5,79.1999967057597L356.33333333333337,71.01817840202293L356.16666666666663,72.10908750918782L356,71.5090875022791L355.8333333333333,70.41817839511421L355.6666666666667,77.50908759168607L355.5,76.41817848452112L355.3333333333333,74.78181482377377L355.1666666666667,71.5090875022791L355,68.23636018078437L354.8333333333333,68.78181473436683L354.6666666666667,75.87272393093869L354.5,72.59999660944396L354.33333333333337,70.96363294869661L354.16666666666663,71.45454204895285L354,72.54545115611774L353.83333333333337,70.90908749537036L353.6666666666667,73.6363602632826L353.5,74.18181481686509L353.3333333333333,76.3636330311949L353.1666666666667,76.3636330311949L353,70.90908749537036L352.8333333333333,74.18181481686509L352.6666666666667,73.6363602632826L352.5,73.6363602632826L352.33333333333337,73.0909057097002L352.16666666666663,72.54545115611774L352,73.6363602632826L351.83333333333337,73.6363602632826L351.6666666666667,70.90908749537036L351.5,71.99999660253525L351.3333333333333,69.27272383462301L351.1666666666667,70.3636329417879L351,71.45454204895285L350.8333333333333,70.90908749537036L350.6666666666667,70.3636329417879L350.5,61.09090553088623L350.3333333333333,68.18181472745809L350.16666666666663,67.63636017387569L350,71.45454204895285L349.83333333333337,69.81817838820547L349.6666666666667,68.18181472745809L349.5,65.99999651312831L349.3333333333333,64.90908740596336L349.1666666666667,63.27272374521604L349,63.27272374521604L348.8333333333333,64.36363285238096L348.6666666666667,75.27272392402998L348.5,74.18181481686509L348.3333333333333,74.18181481686509L348.16666666666663,69.81817838820547L348,66.54545106671074L347.83333333333337,65.45454195954585L347.66666666666663,67.0909056202932L347.5,68.72726928104055L347.3333333333333,71.45454204895285L347.1666666666667,73.6363602632826L347,74.72726937044752L346.8333333333333,74.72726937044752L346.6666666666667,74.18181481686509L346.5,75.27272392402998L346.3333333333333,75.27272392402998L346.16666666666663,74.78181482377377L346,80.78181491318077L345.83333333333337,80.23636035959834L345.66666666666663,78.59999669885096L345.5,84.0545422346755L345.3333333333333,86.78181500258773L345.1666666666667,84.5999967882579L345,84.5999967882579L344.8333333333333,90.0545423240824L344.6666666666667,94.96363330632448L344.5,94.96363330632448L344.3333333333333,94.41817875274205L344.1666666666667,94.41817875274205L344,98.23636062781921L343.83333333333337,100.96363339573145L343.66666666666663,96.59999696707183L343.5,101.50908794931394L343.3333333333333,100.41817884214902L343.1666666666667,105.32726982439107L343,104.23636071722618L342.8333333333333,103.69090616364369L342.6666666666667,104.23636071722618L342.5,104.78181527080861L342.3333333333333,105.32726982439107L342.1666666666667,108.5999971458858L342,107.56363349204716L341.83333333333337,108.65454259921205L341.66666666666663,112.47272447428921L341.5,111.92726992070675L341.33333333333337,111.38181536712432L341.1666666666667,110.29090625995943L341,110.29090625995943L340.8333333333333,115.19999724220148L340.6666666666667,115.19999724220148L340.5,115.19999724220148L340.3333333333333,115.74545179578394L340.1666666666667,122.83636099235582L340,122.29090643877333L339.83333333333337,127.74545197459787L339.66666666666663,135.92727027833462L339.5,133.19999751042238L339.33333333333337,133.7454520640048L339.1666666666667,132.65454295683992L339,132.65454295683992L338.8333333333333,131.61817930300128L338.6666666666667,133.7999975173311L338.5,139.25454305315563L338.3333333333333,139.25454305315563L338.1666666666667,138.70908849957314L338,136.52727028524336L337.8333333333333,139.25454305315563L337.66666666666663,141.4363612674854L337.5,140.34545216032052L337.33333333333337,139.79999760673803L337.1666666666667,140.89090671390295L337,140.89090671390295L336.8333333333333,140.34545216032052L336.6666666666667,141.4363612674854L336.5,141.98181582106787L336.3333333333333,145.25454314256257L336.1666666666667,144.16363403539768L336,144.70908858898014L335.8333333333333,144.16363403539768L335.66666666666663,144.16363403539768L335.5,144.16363403539768L335.33333333333337,143.0727249282328L335.16666666666663,143.0727249282328L335,142.5272703746503L334.8333333333333,143.0727249282328L334.6666666666667,144.70908858898014L334.5,144.16363403539768L334.3333333333333,143.0727249282328L334.1666666666667,143.0727249282328L334,142.5272703746503L333.8333333333333,148.52727046405727L333.66666666666663,147.43636135689238L333.5,142.5818158178167L333.33333333333337,143.67272492498162L333.16666666666663,143.67272492498162L333,143.67272492498162L332.8333333333333,144.7636340321465L332.6666666666667,144.21817947856402L332.5,144.7636340321465L332.3333333333333,140.45454305681315L332.1666666666667,133.3636338602413L332,129.05454288490796L331.8333333333333,124.69090645624831L331.6666666666667,123.59999734908342L331.5,125.2363610098308L331.33333333333337,129.05454288490796L331.16666666666663,124.69090645624831L331,124.14545190266591L330.8333333333333,115.41817904534668L330.6666666666667,115.9636335989291L330.5,115.41817904534668L330.3333333333333,112.69090627743441L330.1666666666667,112.69090627743441L330,113.23636083101687L329.8333333333333,113.23636083101687L329.6666666666667,113.23636083101687L329.5,110.99999716336077L329.33333333333337,112.09090627052566L329.16666666666663,108.818178949031L329,110.45454260977831L328.83333333333337,114.81817903843793L328.6666666666667,119.72727002068001L328.5,122.45454278859228L328.3333333333333,122.45454278859228L328.1666666666667,121.90908823500982L328,121.36363368142739L327.8333333333333,121.36363368142739L327.6666666666667,121.90908823500982L327.5,122.45454278859228L327.33333333333337,122.99999734217471L327.16666666666663,121.90908823500982L327,126.27272466366944L326.83333333333337,122.45454278859228L326.6666666666667,122.99999734217471L326.5,121.90908823500982L326.3333333333333,120.27272457426247L326.1666666666667,120.8181791278449L326,116.45454269918531L325.8333333333333,116.45454269918531L325.6666666666667,117.5454518063502L325.5,108.818178949031L325.3333333333333,110.94545171003452L325.16666666666663,108.76363349570474L325,104.39999706704509L324.83333333333337,95.12726965614345L324.6666666666667,95.67272420972586L324.5,94.03636054897851L324.3333333333333,94.58181510256097L324.1666666666667,95.12726965614345L324,95.12726965614345L323.8333333333333,92.99999688498002L323.6666666666667,88.6363604563204L323.5,86.45454224199057L323.3333333333333,83.1818149204959L323.16666666666663,83.1818149204959L323,83.1818149204959L322.83333333333337,83.1818149204959L322.66666666666663,83.72726947407833L322.5,85.90908768840814L322.3333333333333,85.90908768840814L322.1666666666667,88.03636044941169L322,88.03636044941169L321.8333333333333,89.67272411015904L321.6666666666667,92.94545143165374L321.5,93.4909059852362L321.3333333333333,96.76363330673092L321.16666666666663,97.30908786031333L321,96.76363330673092L320.83333333333337,98.39999696747824L320.66666666666663,98.9454515210607L320.5,99.49090607464314L320.3333333333333,100.58181518180805L320.1666666666667,100.09090608155185L320,100.63636063513434L319.8333333333333,100.63636063513434L319.6666666666667,102.27272429588169L319.5,103.36363340304658L319.3333333333333,103.36363340304658L319.1666666666667,104.4545425102115L319,104.4545425102115L318.83333333333337,104.99999706379393L318.66666666666663,105.54545161737639L318.5,104.99999706379393L318.3333333333333,108.27272438528863L318.1666666666667,107.7272698317062L318,109.909088046036L317.8333333333333,109.909088046036L317.6666666666667,110.45454259961846L317.5,110.9999971532009L317.3333333333333,111.54545170678338L317.1666666666667,115.90908813544297L317,116.99999724260786L316.83333333333337,121.85454278168353L316.66666666666663,122.39999733526602L316.5,123.49090644243091L316.33333333333337,124.58181554959583L316.1666666666667,125.67272465676069L316,130.03636108542034L315.8333333333333,131.12727019258523L315.6666666666667,135.43636116791856L315.5,141.43636125732553L315.3333333333333,145.7454522326589L315.1666666666667,151.19999776848337L315,152.83636142923075L314.83333333333337,155.56363419714302L314.66666666666663,156.10908875072545L314.5,161.01817973296752L314.33333333333337,161.56363428654998L314.1666666666667,170.2909071438692L314,169.74545259028676L313.8333333333333,169.1999980367043L313.6666666666667,171.3818162510341L313.5,171.3818162510341L313.3333333333333,171.92727080461654L313.1666666666667,170.2909071438692L313,166.47272526879203L312.8333333333333,171.3818162510341L312.66666666666663,171.3818162510341L312.5,174.65454357252878L312.33333333333337,174.65454357252878L312.1666666666667,174.10908901894635L312,174.10908901894635L311.8333333333333,173.56363446536392L311.6666666666667,173.01817991178146L311.5,174.10908901894635L311.3333333333333,173.01817991178146L311.1666666666667,171.92727080461654L311,171.3818162510341L310.8333333333333,170.2909071438692L310.66666666666663,170.83636169745162L310.5,169.1999980367043L310.33333333333337,168.65454348312184L310.16666666666663,171.3818162510341L310,170.83636169745162L309.8333333333333,170.2909071438692L309.6666666666667,173.56363446536392L309.5,173.01817991178146L309.3333333333333,175.19999812611124L309.1666666666667,175.19999812611124L309,176.29090723327616L308.8333333333333,183.92727098343047L308.66666666666663,183.38181642984804L308.5,185.01818009059537L308.33333333333337,190.4727256264199L308.16666666666663,199.74545303732157L308,198.65454393015665L307.8333333333333,200.8363621444865L307.6666666666667,201.38181669806892L307.5,200.8363621444865L307.3333333333333,200.29090759090403L307.1666666666667,202.41818036206746L307,207.3272713443095L306.8333333333333,211.69090777296913L306.6666666666667,214.96363509446383L306.5,214.96363509446383L306.33333333333337,214.96363509446383L306.16666666666663,214.96363509446383L306,214.4181805408814L305.8333333333333,212.23636232655156L305.6666666666667,211.69090777296913L305.5,211.69090777296913L305.3333333333333,211.14545321938667L305.1666666666667,211.14545321938667L305,210.5999986658042L304.8333333333333,210.05454411222178L304.6666666666667,210.05454411222178L304.5,210.05454411222178L304.33333333333337,210.05454411222178L304.16666666666663,210.05454411222178L304,210.05454411222178L303.83333333333337,209.50908955863932L303.6666666666667,207.3272713443095L303.5,207.27272589098322L303.3333333333333,207.27272589098322L303.1666666666667,207.27272589098322L303,207.27272589098322L302.8333333333333,207.27272589098322L302.6666666666667,206.78181679072705L302.5,206.78181679072705L302.33333333333337,206.29090769047087L302.16666666666663,205.74545313688841L302,205.74545313688841L301.83333333333337,205.74545313688841L301.6666666666667,205.19999858330596L301.5,204.65454402972352L301.3333333333333,204.1090894761411L301.1666666666667,203.56363492255863L301,203.56363492255863L300.8333333333333,201.92727126181126L300.6666666666667,201.92727126181126L300.5,201.38181670822883L300.3333333333333,201.38181670822883L300.16666666666663,201.38181670822883L300,201.38181670822883L299.83333333333337,201.38181670822883L299.6666666666667,197.56363483315164L299.5,197.0181802795692L299.3333333333333,196.47272572598675L299.1666666666667,194.8363620652394L299,194.8363620652394L298.8333333333333,195.38181661882186L298.6666666666667,194.8363620652394L298.5,189.9818165363236L298.3333333333333,189.9818165363236L298.16666666666663,189.43636198274118L298,189.43636198274118L297.83333333333337,189.43636198274118L297.66666666666663,189.43636198274118L297.5,187.25454376841134L297.3333333333333,184.52727100049907L297.1666666666667,185.07272555408156L297,185.07272555408156L296.8333333333333,185.07272555408156L296.6666666666667,185.07272555408156L296.5,186.7090892148289L296.3333333333333,190.52727108990604L296.16666666666663,189.9818165363236L296,189.9818165363236L295.83333333333337,190.52727108990604L295.66666666666663,189.9818165363236L295.5,190.52727108990604L295.3333333333333,190.52727108990604L295.1666666666667,191.0727256434885L295,188.34545287557626L294.8333333333333,187.25454376841134L294.6666666666667,186.7090892148289L294.5,187.7999983219938L294.3333333333333,174.70908903601497L294.1666666666667,175.85454359650612L294,172.58181627501142L293.83333333333337,174.21817993575877L293.66666666666663,170.94545261426407L293.5,169.85454350709915L293.3333333333333,169.30908895351672L293.1666666666667,170.3999980606816L293,164.9454525248571L292.8333333333333,164.9454525248571L292.6666666666667,163.30908886410975L292.5,162.7636343105273L292.3333333333333,156.76363422112033L292.1666666666667,156.21817966753787L292,156.21817966753787L291.83333333333337,156.21817966753787L291.66666666666663,156.21817966753787L291.5,156.76363422112033L291.33333333333337,152.3999977924607L291.1666666666667,152.3999977924607L291,152.3999977924607L290.8333333333333,152.3999977924607L290.6666666666667,153.4909068996256L290.5,149.67272502454844L290.3333333333333,149.67272502454844L290.1666666666667,149.127270470966L290,148.0363613638011L289.83333333333337,148.0363613638011L289.66666666666663,144.7636340423064L289.5,146.9454522566362L289.33333333333337,146.39999770305374L289.1666666666667,145.85454314947128L289,146.39999770305374L288.8333333333333,145.85454314947128L288.6666666666667,145.85454314947128L288.5,145.30908859588888L288.3333333333333,145.85454314947128L288.1666666666667,145.85454314947128L288,145.30908859588888L287.8333333333333,145.30908859588888L287.66666666666663,144.7636340423064L287.5,144.21817948872393L287.33333333333337,143.6727249351415L287.1666666666667,144.21817948872393L287,146.39999770305374L286.8333333333333,144.7636340423064L286.6666666666667,144.21817948872393L286.5,142.03636127439415L286.3333333333333,141.49090672081167L286.1666666666667,141.54545217413792L286,141.49090672081167L285.8333333333333,141.49090672081167L285.66666666666663,141.98181582106787L285.5,141.98181582106787L285.33333333333337,141.98181582106787L285.16666666666663,137.61817939240828L285,138.16363394599068L284.8333333333333,138.70908849957314L284.6666666666667,139.25454305315563L284.5,138.70908849957314L284.3333333333333,138.70908849957314L284.1666666666667,140.34545216032052L284,140.34545216032052L283.8333333333333,140.34545216032052L283.66666666666663,139.79999760673803L283.5,139.25454305315563L283.33333333333337,138.7636339528994L283.16666666666663,138.218179399317L283,140.94545216722923L282.8333333333333,141.49090672081167L282.6666666666667,142.0909067277204L282.5,143.781815841794L282.3333333333333,143.781815841794L282.1666666666667,144.32727039537647L282,144.32727039537647L281.8333333333333,149.1818159242923L281.6666666666667,149.23636137761852L281.5,149.83636138452727L281.33333333333337,150.3818159381097L281.16666666666663,150.43636139143598L281,150.43636139143598L280.8333333333333,152.67272505909207L280.6666666666667,155.94545238058674L280.5,155.94545238058674L280.3333333333333,155.94545238058674L280.1666666666667,155.99999783391303L280,155.99999783391303L279.8333333333333,155.4545432803306L279.6666666666667,154.9636341800744L279.5,155.01817963340068L279.33333333333337,154.47272507981822L279.16666666666663,154.47272507981822L279,155.01817963340068L278.83333333333337,155.01817963340068L278.6666666666667,155.01817963340068L278.5,155.01817963340068L278.3333333333333,157.74545240131292L278.1666666666667,158.29090695489538L278,159.981816068969L277.8333333333333,159.981816068969L277.6666666666667,173.6181799085303L277.5,173.07272535494786L277.33333333333337,176.34545267644256L277.16666666666663,177.4909072369337L277,181.3090891120109L276.83333333333337,183.49090732634068L276.6666666666667,184.5818164335056L276.5,185.1818164404143L276.3333333333333,191.18181652982128L276.1666666666667,191.18181652982128L276,194.45454385131598L275.8333333333333,196.09090751206332L275.6666666666667,202.0909076014703L275.5,203.1818167086352L275.3333333333333,202.63636215505275L275.16666666666663,203.1818167086352L275,203.1818167086352L274.83333333333337,203.1818167086352L274.6666666666667,208.63636224445972L274.5,209.18181679804218L274.3333333333333,209.7272713516246L274.1666666666667,210.2727259052071L274,209.7272713516246L273.8333333333333,213.5454532267018L273.6666666666667,213.5454532267018L273.5,214.09090778028423L273.3333333333333,215.18181688744914L273.16666666666663,215.23636234077543L273,218.5636351155964L272.83333333333337,218.61818056892264L272.66666666666663,219.70908967608756L272.5,221.89090789041737L272.3333333333333,221.89090789041737L272.1666666666667,222.43636244399983L272,222.43636244399983L271.8333333333333,223.52727155116474L271.6666666666667,223.52727155116474L271.5,224.07272610474718L271.3333333333333,224.6181806583296L271.16666666666663,224.6181806583296L271,225.16363521191207L270.83333333333337,225.7636352188208L270.66666666666663,225.7636352188208L270.5,225.7636352188208L270.3333333333333,225.7636352188208L270.1666666666667,227.45454433289441L270,227.99999888647687L269.8333333333333,230.72727165438914L269.6666666666667,231.27272620797157L269.5,231.21818075464532L269.3333333333333,231.21818075464532L269.1666666666667,231.27272620797157L269,231.81818076155403L268.83333333333337,232.3636353151365L268.66666666666663,232.41818076846275L268.5,237.32727175070482L268.3333333333333,237.32727175070482L268.1666666666667,237.32727175070482L268,237.32727175070482L267.8333333333333,238.41818085786971L267.6666666666667,238.41818085786971L267.5,238.41818085786971L267.3333333333333,238.41818085786971L267.1666666666667,238.47272631119597L267,239.01818086477843L266.83333333333337,239.01818086477843L266.66666666666663,239.5090899650346L266.5,240.10908997194335L266.33333333333337,241.19999907910824L266.1666666666667,241.25454453243452L266,241.19999907910824L265.8333333333333,241.14545362578198L265.6666666666667,241.19999907910824L265.5,240.70908997885206L265.3333333333333,241.25454453243452L265.1666666666667,241.25454453243452L265,241.7454536326907L264.83333333333337,241.6909081793644L264.66666666666663,241.19999907910824L264.5,241.14545362578198L264.33333333333337,241.14545362578198L264.1666666666667,241.0909081724557L264,241.0909081724557L263.8333333333333,241.0909081724557L263.6666666666667,241.0909081724557L263.5,241.03636271912944L263.3333333333333,241.0909081724557L263.1666666666667,241.63636272603816L263,242.12727182629433L262.8333333333333,242.6727263798768L262.66666666666663,243.2727263867855L262.5,243.2727263867855L262.33333333333337,243.2727263867855L262.1666666666667,243.3272718401118L262,243.3272718401118L261.8333333333333,243.3272718401118L261.6666666666667,243.9272718470205L261.5,243.9272718470205L261.3333333333333,244.41818094727668L261.1666666666667,244.41818094727668L261,244.41818094727668L260.8333333333333,244.90909004753286L260.66666666666663,244.96363550085914L260.5,244.96363550085914L260.33333333333337,244.96363550085914L260.16666666666663,245.0181809541854L260,245.0181809541854L259.8333333333333,245.0181809541854L259.6666666666667,245.07272640751168L259.5,245.61818096109414L259.3333333333333,245.61818096109414L259.1666666666667,245.07272640751168L259,245.07272640751168L258.8333333333333,245.07272640751168L258.66666666666663,246.16363551467657L258.5,246.16363551467657L258.33333333333337,246.21818096800286L258.16666666666663,246.21818096800286L258,246.7636355215853L257.8333333333333,246.7636355215853L257.6666666666667,246.7636355215853L257.5,246.81818097491157L257.3333333333333,246.81818097491157L257.1666666666667,246.87272642823785L257,246.87272642823785L256.8333333333333,246.87272642823785L256.6666666666667,246.87272642823785L256.5,246.81818097491157L256.33333333333337,246.21818096800286L256.16666666666663,246.7636355215853L256,246.7636355215853L255.83333333333331,246.81818097491157L255.66666666666666,246.87272642823785L255.50000000000003,246.9272718815641L255.33333333333331,246.9272718815641L255.16666666666669,246.38181732798165L254.99999999999997,246.43636278130793L254.83333333333334,246.43636278130793L254.66666666666669,246.4909082346342L254.5,246.54545368796045L254.33333333333334,246.54545368796045L254.16666666666666,246.4909082346342L254,247.03636278821665L253.83333333333334,247.58181734179908L253.66666666666666,247.58181734179908L253.5,248.61818099563772L253.33333333333331,248.61818099563772L253.16666666666669,248.61818099563772L252.99999999999997,248.61818099563772L252.83333333333334,248.61818099563772L252.66666666666669,248.61818099563772L252.5,248.56363554231146L252.33333333333334,248.018180988729L252.16666666666666,248.07272644205528L252,248.07272644205528L251.83333333333334,248.12727189538154L251.66666666666666,248.12727189538154L251.5,248.1818173487078L251.33333333333331,248.1818173487078L251.16666666666669,247.63636279512536L250.99999999999997,247.69090824845162L250.83333333333334,247.74545370177788L250.66666666666669,247.79999915510416L250.5,246.654544594613L250.33333333333334,246.654544594613L250.16666666666666,247.2545446015217L250,247.30909005484799L249.83333333333334,247.30909005484799L249.66666666666666,247.30909005484799L249.5,247.2545446015217L249.33333333333331,246.70909004793924L249.16666666666666,246.70909004793924L249.00000000000003,246.70909004793924L248.83333333333331,246.654544594613L248.66666666666669,246.654544594613L248.5,246.654544594613L248.33333333333334,246.10909004103053L248.16666666666666,246.10909004103053L248,246.05454458770427L247.83333333333334,246.05454458770427L247.66666666666666,246.05454458770427L247.5,246.59999914128673L247.33333333333331,246.59999914128673L247.16666666666666,246.59999914128673L247.00000000000003,246.05454458770427L246.83333333333331,246.05454458770427L246.66666666666669,245.99999913437802L246.5,246.05454458770427L246.33333333333334,245.5090900341218L246.16666666666666,245.45454458079556L246,245.3999991274693L245.83333333333334,245.3999991274693L245.66666666666666,245.3999991274693L245.5,244.79999912056059L245.33333333333331,244.79999912056059L245.16666666666666,244.85454457388684L245.00000000000003,244.79999912056059L244.83333333333331,244.85454457388684L244.66666666666669,244.9090900272131L244.49999999999997,245.45454458079556L244.33333333333334,245.5090900341218L244.16666666666669,245.5090900341218L244,245.5090900341218L243.83333333333334,245.45454458079556L243.66666666666666,245.5090900341218L243.5,245.99999913437802L243.33333333333331,246.05454458770427L243.16666666666666,246.54545368796045L243.00000000000003,247.03636278821665L242.83333333333331,247.03636278821665L242.66666666666669,247.03636278821665L242.49999999999997,247.03636278821665L242.33333333333334,247.58181734179908L242.16666666666669,247.58181734179908L242,247.58181734179908L241.83333333333334,247.58181734179908L241.66666666666666,247.52727188847282L241.5,248.07272644205528L241.33333333333334,247.58181734179908L241.16666666666666,247.58181734179908L241,247.58181734179908L240.83333333333331,247.52727188847282L240.66666666666669,247.52727188847282L240.49999999999997,247.47272643514657L240.33333333333334,247.47272643514657L240.16666666666669,247.47272643514657L240,247.52727188847282L239.83333333333334,247.52727188847282L239.66666666666666,248.07272644205528L239.5,248.018180988729L239.33333333333334,248.07272644205528L239.16666666666666,248.018180988729L239,247.96363553540274L238.83333333333331,247.9090900820765L238.66666666666669,247.96363553540274L238.49999999999997,248.018180988729L238.33333333333334,246.9272718815641L238.16666666666669,246.9272718815641L238,246.87272642823785L237.83333333333334,246.81818097491157L237.66666666666666,246.81818097491157L237.5,246.81818097491157L237.33333333333334,246.81818097491157L237.16666666666666,246.3272718746554L237,246.3272718746554L236.83333333333331,245.83636277439922L236.66666666666666,245.89090822772548L236.50000000000003,245.89090822772548L236.33333333333331,245.89090822772548L236.16666666666669,245.89090822772548L236,245.89090822772548L235.83333333333334,245.89090822772548L235.66666666666666,245.89090822772548L235.5,245.83636277439922L235.33333333333334,245.78181732107294L235.16666666666666,245.72727186774665L235,245.78181732107294L234.83333333333331,245.78181732107294L234.66666666666666,245.83636277439922L234.50000000000003,246.38181732798165L234.33333333333331,246.3272718746554L234.16666666666669,246.81818097491157L234,246.7636355215853L233.83333333333334,247.8545446287502L233.66666666666666,247.8545446287502L233.5,247.8545446287502L233.33333333333334,247.79999917542392L233.16666666666666,247.74545372209766L233,247.74545372209766L232.83333333333331,247.74545372209766L232.66666666666666,248.29090827568012L232.50000000000003,248.29090827568012L232.33333333333331,247.74545372209766L232.16666666666669,247.79999917542392L231.99999999999997,247.79999917542392L231.83333333333334,247.8545446287502L231.66666666666669,247.8545446287502L231.5,247.8545446287502L231.33333333333334,247.8545446287502L231.16666666666666,247.8545446287502L231,247.36363552849403L230.83333333333331,247.36363552849403L230.66666666666666,247.36363552849403L230.50000000000003,247.9090900820765L230.33333333333331,248.5090900889852L230.16666666666669,248.5090900889852L229.99999999999997,248.5090900889852L229.83333333333334,248.45454463565892L229.66666666666669,248.99999918924138L229.5,248.99999918924138L229.33333333333334,248.99999918924138L229.16666666666666,249.05454464256763L229,249.05454464256763L228.83333333333334,249.10909009589392L228.66666666666666,249.10909009589392L228.5,249.05454464256763L228.33333333333331,249.05454464256763L228.16666666666669,248.99999918924138L227.99999999999997,248.9454537359151L227.83333333333334,248.45454463565892L227.66666666666669,247.8545446287502L227.5,247.9090900820765L227.33333333333334,247.8545446287502L227.16666666666666,247.8545446287502L227,247.8545446287502L226.83333333333334,247.30909007516775L226.66666666666666,247.2545446218415L226.5,246.70909006825903L226.33333333333331,246.16363551467657L226.16666666666669,246.16363551467657L225.99999999999997,246.21818096800286L225.83333333333334,246.2727264213291L225.66666666666669,245.78181732107294L225.5,245.78181732107294L225.33333333333334,245.83636277439922L225.16666666666666,245.83636277439922L225,245.83636277439922L224.83333333333334,245.83636277439922L224.66666666666666,246.3272718746554L224.5,246.3272718746554L224.33333333333331,246.3272718746554L224.16666666666666,246.38181732798165L224.00000000000003,245.83636277439922L223.83333333333331,245.83636277439922L223.66666666666669,245.89090822772548L223.5,245.94545368105173L223.33333333333334,245.89090822772548L223.16666666666666,245.94545368105173L223,244.30909002030438L222.83333333333334,244.30909002030438L222.66666666666666,244.25454456697813L222.5,244.30909002030438L222.33333333333331,244.30909002030438L222.16666666666666,244.36363547363067L222.00000000000003,244.30909002030438L221.83333333333331,244.25454456697813L221.66666666666669,243.70909001339567L221.5,243.70909001339567L221.33333333333334,243.70909001339567L221.16666666666666,243.70909001339567L221,243.70909001339567L220.83333333333334,243.70909001339567L220.66666666666666,243.70909001339567L220.5,244.19999911365184L220.33333333333331,244.19999911365184L220.16666666666666,244.19999911365184L220.00000000000003,244.1454536603256L219.83333333333331,244.69090821390802L219.66666666666669,244.69090821390802L219.49999999999997,244.69090821390802L219.33333333333334,245.23636276749048L219.16666666666669,245.29090822081676L219,245.83636277439922L218.83333333333334,245.83636277439922L218.66666666666666,245.89090822772548L218.5,245.89090822772548L218.33333333333331,245.89090822772548L218.16666666666666,245.83636277439922L218.00000000000003,245.78181732107294L217.83333333333331,245.78181732107294L217.66666666666669,245.78181732107294L217.49999999999997,245.23636276749048L217.33333333333334,245.29090822081676L217.16666666666669,245.29090822081676L217,245.34545367414302L216.83333333333334,245.29090822081676L216.66666666666666,245.29090822081676L216.5,245.29090822081676L216.33333333333334,245.29090822081676L216.16666666666666,245.83636277439922L216,245.89090822772548L215.83333333333331,245.89090822772548L215.66666666666669,246.43636278130793L215.49999999999997,246.9272718815641L215.33333333333334,246.43636278130793L215.16666666666669,245.29090822081676L215,245.29090822081676L214.83333333333334,245.29090822081676L214.66666666666666,245.29090822081676L214.5,244.7454536672343L214.33333333333334,245.23636276749048L214.16666666666666,244.7454536672343L214,244.7454536672343L213.83333333333331,244.19999911365184L213.66666666666669,244.69090821390802L213.49999999999997,245.23636276749048L213.33333333333334,244.69090821390802L213.16666666666669,244.69090821390802L213,244.69090821390802L212.83333333333334,244.7454536672343L212.66666666666666,244.7454536672343L212.5,245.23636276749048L212.33333333333334,245.23636276749048L212.16666666666666,245.72727186774665L212,246.2727264213291L211.83333333333331,246.2727264213291L211.66666666666666,246.2727264213291L211.50000000000003,246.2727264213291L211.33333333333331,246.2727264213291L211.16666666666669,246.21818096800286L211,246.7636355215853L210.83333333333334,246.70909006825903L210.66666666666666,245.61818096109414L210.5,245.61818096109414L210.33333333333334,245.56363550776786L210.16666666666666,245.56363550776786L210,245.56363550776786L209.83333333333331,245.56363550776786L209.66666666666666,245.56363550776786L209.50000000000003,245.56363550776786L209.33333333333331,244.41818094727668L209.16666666666669,244.36363549395043L209,244.30909004062414L208.83333333333334,244.30909004062414L208.66666666666666,244.2545445872979L208.5,244.2545445872979L208.33333333333334,244.2545445872979L208.16666666666666,243.70909003371543L208,243.16363548013297L207.83333333333331,243.16363548013297L207.66666666666666,243.16363548013297L207.50000000000003,243.16363548013297L207.33333333333331,243.16363548013297L207.16666666666669,243.16363548013297L206.99999999999997,243.16363548013297L206.83333333333334,243.1090900268067L206.66666666666669,243.1090900268067L206.5,243.1090900268067L206.33333333333334,245.29090824113652L206.16666666666666,244.74545368755406L206,244.74545368755406L205.83333333333331,244.69090823422778L205.66666666666666,244.74545368755406L205.50000000000003,244.69090823422778L205.33333333333331,244.69090823422778L205.16666666666669,244.69090823422778L204.99999999999997,246.27272644164887L204.83333333333334,246.27272644164887L204.66666666666669,246.27272644164887L204.5,246.32727189497515L204.33333333333334,246.8727264485576L204.16666666666666,247.41818100214005L204,247.41818100214005L203.83333333333334,246.8727264485576L203.66666666666666,247.41818100214005L203.5,247.90909010239622L203.33333333333331,247.90909010239622L203.16666666666669,247.90909010239622L202.99999999999997,247.3636355488138L202.83333333333334,247.3636355488138L202.66666666666669,246.81818099523133L202.5,247.3090900954875L202.33333333333334,247.3090900954875L202.16666666666666,247.85454464906996L202,247.79999919574368L201.83333333333334,247.79999919574368L201.66666666666666,247.19999918883497L201.5,247.19999918883497L201.33333333333331,247.19999918883497L201.16666666666669,246.65454463525253L200.99999999999997,246.65454463525253L200.83333333333334,246.10909008167008L200.66666666666669,246.59999918192625L200.5,246.59999918192625L200.33333333333334,246.54545372859997L200.16666666666666,246.54545372859997L200,246.54545372859997L199.83333333333334,247.09090828218245L199.66666666666666,247.1454537355087L199.5,247.1454537355087L199.33333333333334,247.63636283576488L199.16666666666666,247.63636283576488L199,248.1272719360211L198.83333333333331,248.1272719360211L198.66666666666666,249.16363558985972L198.5,250.79999925060707L198.33333333333334,250.79999925060707L198.16666666666666,251.3454538041895L198,251.3454538041895L197.83333333333331,252.43636291135442L197.66666666666666,252.43636291135442L197.5,252.9272720116106L197.33333333333334,252.9272720116106L197.16666666666666,253.47272656519306L197,252.9272720116106L196.83333333333331,252.9272720116106L196.66666666666666,253.47272656519306L196.5,254.0181811187755L196.33333333333334,254.0181811187755L196.16666666666666,253.96363566544923L196,254.5090902190317L195.83333333333331,254.5090902190317L195.66666666666669,254.5090902190317L195.5,255.05454477261412L195.33333333333334,254.56363567235795L195.16666666666666,254.61818112568423L195,254.61818112568423L194.83333333333331,255.16363567926666L194.66666666666669,255.70909023284912L194.5,255.70909023284912L194.33333333333334,255.7636356861754L194.16666666666666,256.30909023975784L194,257.39999934692275L193.83333333333331,257.9454539005052L193.66666666666669,257.9454539005052L193.5,257.9454539005052L193.33333333333334,257.9454539005052L193.16666666666666,258.4909084540876L193,259.0363630076701L192.83333333333331,259.58181756125254L192.66666666666669,260.67272666841745L192.5,260.67272666841745L192.33333333333334,261.2181812219999L192.16666666666666,261.7636357755824L192,261.7636357755824L191.83333333333331,262.3090903291648L191.66666666666669,262.3090903291648L191.5,262.3090903291648L191.33333333333334,262.3090903291648L191.16666666666666,262.8545448827473L191,262.8545448827473L190.83333333333334,262.799999429421L190.66666666666669,263.34545398300344L190.5,263.8909085365859L190.33333333333334,264.3818176368421L190.16666666666666,264.92727219042456L190,264.92727219042456L189.83333333333334,264.8727267370983L189.66666666666669,264.3272721835158L189.5,264.8727267370983L189.33333333333334,264.8727267370983L189.16666666666666,264.8727267370983L189,264.818181283772L188.83333333333334,264.818181283772L188.66666666666669,264.818181283772L188.5,264.818181283772L188.33333333333334,264.818181283772L188.16666666666666,265.3636358373544L188,265.9090903909369L187.83333333333334,265.8545449376106L187.66666666666666,265.8545449376106L187.5,265.3090903840282L187.33333333333334,265.3090903840282L187.16666666666666,265.3090903840282L187,264.7636358304457L186.83333333333334,264.7636358304457L186.66666666666666,265.3090903840282L186.5,265.3090903840282L186.33333333333331,266.39999949119306L186.16666666666666,266.94545404477554L186,267.490908598358L185.83333333333334,266.94545404477554L185.66666666666666,266.39999949119306L185.5,265.8545449376106L185.33333333333331,266.39999949119306L185.16666666666666,266.39999949119306L185,266.94545404477554L184.83333333333334,266.94545404477554L184.66666666666666,267.490908598358L184.5,268.0363631519404L184.33333333333331,268.0363631519404L184.16666666666666,269.1272722591053L184,268.5818177055229L183.83333333333334,269.1272722591053L183.66666666666666,269.1272722591053L183.5,269.1272722591053L183.33333333333331,269.6727268126878L183.16666666666669,269.1272722591053L183,269.61818135936153L182.83333333333334,269.61818135936153L182.66666666666666,269.07272680577904L182.5,269.61818135936153L182.33333333333331,269.61818135936153L182.16666666666669,269.61818135936153L182,269.07272680577904L181.83333333333334,268.5272722521966L181.66666666666666,268.5272722521966L181.5,268.5272722521966L181.33333333333331,268.5272722521966L181.16666666666669,268.0363631519404L181,268.0363631519404L180.83333333333334,267.490908598358L180.66666666666666,267.490908598358L180.5,266.94545404477554L180.33333333333331,267.490908598358L180.16666666666669,267.490908598358L180,268.0363631519404L179.83333333333334,267.490908598358L179.66666666666666,268.0363631519404L179.5,268.0363631519404L179.33333333333331,268.0363631519404L179.16666666666669,267.54545405168426L179,267.54545405168426L178.83333333333334,267.54545405168426L178.66666666666666,268.0363631519404L178.5,268.5272722521966L178.33333333333334,268.5272722521966L178.16666666666669,267.9818176986142L178,267.4363631450317L177.83333333333334,267.9818176986142L177.66666666666666,267.9272722452879L177.5,267.38181769170546L177.33333333333334,267.38181769170546L177.16666666666669,266.836363138123L177,267.38181769170546L176.83333333333334,267.9272722452879L176.66666666666666,267.38181769170546L176.5,266.89090859144926L176.33333333333334,266.39999949119306L176.16666666666669,265.9090903909369L176,265.9636358442632L175.83333333333334,265.9636358442632L175.66666666666666,265.9636358442632L175.5,265.9636358442632L175.33333333333334,265.9636358442632L175.16666666666666,265.9636358442632L175,265.9636358442632L174.83333333333334,266.5090903978456L174.66666666666666,267.05454495142806L174.5,267.05454495142806L174.33333333333334,267.59999950501054L174.16666666666666,268.145454058593L174,268.145454058593L173.83333333333331,267.59999950501054L173.66666666666666,267.59999950501054L173.5,267.59999950501054L173.33333333333334,268.145454058593L173.16666666666666,268.145454058593L173,268.6909086121754L172.83333333333331,269.2363631657579L172.66666666666666,269.7818177193403L172.5,270.32727227292276L172.33333333333334,270.87272682650524L172.16666666666666,271.4181813800877L172,271.96363593367016L171.83333333333331,272.5090904872526L171.66666666666666,273.054545040835L171.5,273.054545040835L171.33333333333334,273.054545040835L171.16666666666666,273.5999995944175L171,273.5999995944175L170.83333333333331,274.14545414799994L170.66666666666669,274.6909087015824L170.5,275.23636325516486L170.33333333333334,275.7818178087473L170.16666666666666,275.7818178087473L170,275.7818178087473L169.83333333333331,275.7818178087473L169.66666666666669,275.7818178087473L169.5,275.7818178087473L169.33333333333334,275.7818178087473L169.16666666666666,276.3272723623297L169,276.8727269159122L168.83333333333331,277.41818146949464L168.66666666666669,277.41818146949464L168.5,277.96363602307713L168.33333333333334,278.50909057665956L168.16666666666666,279.054545130242L168,279.054545130242L167.83333333333331,279.5999996838244L167.66666666666669,280.1454542374069L167.5,280.1454542374069L167.33333333333334,280.69090879098934L167.16666666666666,280.69090879098934L167,280.69090879098934L166.83333333333331,281.2363633445718L166.66666666666669,281.2363633445718L166.5,281.78181789815426L166.33333333333334,281.78181789815426L166.16666666666666,281.78181789815426L166,282.3272724517367L165.83333333333334,282.3272724517367L165.66666666666669,282.3272724517367L165.5,282.3272724517367L165.33333333333334,282.8727270053192L165.16666666666666,283.4181815589016L165,283.9636361124841L164.83333333333334,283.9636361124841L164.66666666666669,284.5090906660665L164.5,284.9999997663227L164.33333333333334,285.54545431990516L164.16666666666666,286.0909088734876L164,286.6363634270701L163.83333333333334,287.1818179806525L163.66666666666669,287.1818179806525L163.5,287.1818179806525L163.33333333333334,287.1818179806525L163.16666666666666,287.2363634339788L163,287.2363634339788L162.83333333333334,287.7818179875612L162.66666666666666,287.7818179875612L162.5,288.27272708781743L162.33333333333334,288.81818164139986L162.16666666666666,288.81818164139986L162,288.81818164139986L161.83333333333334,288.81818164139986L161.66666666666666,289.3636361949823L161.5,289.9090907485648L161.33333333333331,290.4545453021472L161.16666666666666,290.4545453021472L161,290.99999985572964L160.83333333333334,291.54545440931213L160.66666666666666,292.09090896289456L160.5,292.63636351647705L160.33333333333331,292.63636351647705L160.16666666666666,292.63636351647705L160,293.7272726236419L159.83333333333334,294.2181817238981L159.66666666666666,294.7090908241543L159.5,295.19999992441046L159.33333333333331,295.69090902466667L159.16666666666666,296.2363635782491L159,296.2363635782491L158.83333333333334,295.69090902466667L158.66666666666666,296.2363635782491L158.5,296.2363635782491L158.33333333333331,296.2363635782491L158.16666666666669,295.69090902466667L158,295.69090902466667L157.83333333333334,295.69090902466667L157.66666666666666,295.69090902466667L157.5,295.69090902466667L157.33333333333331,296.2363635782491L157.16666666666669,296.7818181318316L157,296.7818181318316L156.83333333333334,296.2363635782491L156.66666666666666,296.2363635782491L156.5,296.7818181318316L156.33333333333331,296.7818181318316L156.16666666666669,296.7818181318316L156,296.7818181318316L155.83333333333334,296.7818181318316L155.66666666666666,296.7818181318316L155.5,296.7818181318316L155.33333333333331,296.7818181318316L155.16666666666669,296.7818181318316L155,296.7818181318316L154.83333333333334,296.7818181318316L154.66666666666666,296.7818181318316L154.5,296.7818181318316L154.33333333333331,296.7818181318316L154.16666666666669,296.7818181318316L154,296.7818181318316L153.83333333333334,296.7818181318316L153.66666666666666,296.7818181318316L153.5,296.7818181318316L153.33333333333334,296.7818181318316L153.16666666666669,296.7818181318316L153,296.7818181318316L152.83333333333334,296.7818181318316L152.66666666666666,296.7818181318316L152.5,296.7818181318316L152.33333333333334,296.7818181318316L152.16666666666669,296.7818181318316L152,296.7818181318316L151.83333333333334,296.7818181318316L151.66666666666666,296.7818181318316L151.5,296.7818181318316L151.33333333333334,296.2909090315754L151.16666666666669,296.2909090315754L151,296.2909090315754L150.83333333333334,296.2909090315754L150.66666666666666,296.2909090315754L150.5,296.2909090315754L150.33333333333334,296.8363635851578L150.16666666666666,296.8363635851578L150,296.8363635851578L149.83333333333334,296.8363635851578L149.66666666666666,296.8363635851578L149.5,296.8363635851578L149.33333333333334,296.8363635851578L149.16666666666666,296.8363635851578L149,296.8363635851578L148.83333333333331,296.8363635851578L148.66666666666666,296.8363635851578L148.5,296.8363635851578L148.33333333333334,296.8363635851578L148.16666666666666,296.8363635851578L148,296.8363635851578L147.83333333333331,296.8363635851578L147.66666666666666,296.8363635851578L147.5,296.8363635851578L147.33333333333334,296.8363635851578L147.16666666666666,296.8363635851578L147,296.8363635851578L146.83333333333331,296.8363635851578L146.66666666666666,296.8363635851578L146.5,296.7818181318316L146.33333333333334,296.2363635782491L146.16666666666666,295.69090902466667L146,295.1454544710842L145.83333333333331,294.59999991750175L145.66666666666669,294.0545453639193L145.5,293.50909081033683L145.33333333333334,293.50909081033683L145.16666666666666,292.9636362567544L145,292.41818170317197L144.83333333333331,292.41818170317197L144.66666666666669,292.41818170317197L144.5,291.8727271495895L144.33333333333334,291.8727271495895L144.16666666666666,291.8727271495895L144,291.32727259600705L143.83333333333331,291.32727259600705L143.66666666666669,291.32727259600705L143.5,290.7818180424246L143.33333333333334,290.23636348884213L143.16666666666666,290.23636348884213L143,290.23636348884213L142.83333333333331,289.6909089352597L142.66666666666669,289.1454543816772L142.5,289.1454543816772L142.33333333333334,288.5999998280948L142.16666666666666,289.1454543816772L142,288.5999998280948L141.83333333333331,288.05454527451235L141.66666666666669,288.05454527451235L141.5,288.5999998280948L141.33333333333334,288.05454527451235L141.16666666666666,287.50909072092986L141,286.96363616734743L140.83333333333334,286.418181613765L140.66666666666669,286.418181613765L140.5,285.8727270601825L140.33333333333334,285.8727270601825L140.16666666666666,285.8727270601825L140,285.8727270601825L139.83333333333334,285.3272725066001L139.66666666666669,284.78181795301765L139.5,284.23636339943516L139.33333333333334,283.69090884585273L139.16666666666666,283.69090884585273L139,283.1454542922703L138.83333333333334,283.1454542922703L138.66666666666669,282.5999997386878L138.5,282.0545451851054L138.33333333333334,282.0545451851054L138.16666666666666,281.5090906315229L138,281.5090906315229L137.83333333333334,280.96363607794046L137.66666666666666,280.41818152435803L137.5,280.41818152435803L137.33333333333334,280.41818152435803L137.16666666666666,280.41818152435803L137,280.41818152435803L136.83333333333334,279.87272697077555L136.66666666666666,279.3272724171931L136.5,279.3272724171931L136.33333333333331,279.3272724171931L136.16666666666666,279.3272724171931L136,278.7818178636107L135.83333333333334,278.2363633100282L135.66666666666666,278.2363633100282L135.5,278.2363633100282L135.33333333333331,278.2363633100282L135.16666666666666,278.2363633100282L135,277.69090875644576L134.83333333333334,277.69090875644576L134.66666666666666,277.6363633031195L134.5,277.6363633031195L134.33333333333331,277.09090874953705L134.16666666666666,276.54545419595456L134,275.99999964237213L133.83333333333334,275.4545450887897L133.66666666666666,275.4545450887897L133.5,275.4545450887897L133.33333333333331,275.4545450887897L133.16666666666669,275.4545450887897L133,274.9090905352072L132.83333333333334,274.3636359816248L132.66666666666666,273.81818142804235L132.5,273.27272687445986L132.33333333333331,272.72727232087743L132.16666666666669,272.18181776729494L132,272.18181776729494L131.83333333333334,272.18181776729494L131.66666666666666,271.6363632137125L131.5,271.6363632137125L131.33333333333331,271.6363632137125L131.16666666666669,271.0909086601301L131,271.0909086601301L130.83333333333334,271.0909086601301L130.66666666666666,271.0909086601301L130.5,271.0909086601301L130.33333333333331,271.0909086601301L130.16666666666669,271.0909086601301L130,271.0909086601301L129.83333333333334,271.0909086601301L129.66666666666666,271.6363632137125L129.5,272.18181776729494L129.33333333333331,272.18181776729494L129.16666666666669,272.72727232087743L129,273.27272687445986L128.83333333333334,273.81818142804235L128.66666666666666,273.81818142804235L128.5,274.3636359816248L128.33333333333334,274.9090905352072L128.16666666666669,274.3636359816248L128,273.81818142804235L127.83333333333333,274.3636359816248L127.66666666666666,273.81818142804235L127.49999999999999,273.27272687445986L127.33333333333334,273.81818142804235L127.16666666666667,273.27272687445986L127,273.27272687445986L126.83333333333333,273.27272687445986L126.66666666666666,273.32727232778615L126.49999999999999,272.7818177742037L126.33333333333334,272.23636322062123L126.16666666666667,272.23636322062123L126,272.23636322062123L125.83333333333333,271.6909086670388L125.66666666666666,272.23636322062123L125.49999999999999,272.23636322062123L125.33333333333334,272.7818177742037L125.16666666666667,272.7818177742037L125,273.32727232778615L124.83333333333333,273.32727232778615L124.66666666666666,273.32727232778615L124.50000000000001,273.8727268813686L124.33333333333334,273.8727268813686L124.16666666666667,274.41818143495107L124,274.41818143495107L123.83333333333333,274.41818143495107L123.66666666666666,274.41818143495107L123.50000000000001,274.9636359885335L123.33333333333334,274.9636359885335L123.16666666666667,274.9636359885335L123,274.9636359885335L122.83333333333333,275.5090905421159L122.66666666666666,276.0545450956984L122.50000000000001,275.5090905421159L122.33333333333334,276.0545450956984L122.16666666666667,275.5090905421159L122,276.0545450956984L121.83333333333333,276.59999964928085L121.66666666666666,276.59999964928085L121.50000000000001,276.59999964928085L121.33333333333334,276.59999964928085L121.16666666666667,277.14545420286333L121,277.14545420286333L120.83333333333333,277.14545420286333L120.66666666666667,277.14545420286333L120.5,276.59999964928085L120.33333333333334,276.59999964928085L120.16666666666667,276.59999964928085L120,277.14545420286333L119.83333333333333,277.14545420286333L119.66666666666667,276.59999964928085L119.5,276.59999964928085L119.33333333333334,277.14545420286333L119.16666666666667,277.69090875644576L119,277.14545420286333L118.83333333333333,277.14545420286333L118.66666666666667,277.14545420286333L118.5,277.14545420286333L118.33333333333333,277.14545420286333L118.16666666666666,277.14545420286333L118,277.14545420286333L117.83333333333333,277.14545420286333L117.66666666666667,277.69090875644576L117.5,277.69090875644576L117.33333333333333,277.69090875644576L117.16666666666666,277.69090875644576L117,277.69090875644576L116.83333333333333,277.69090875644576L116.66666666666667,277.69090875644576L116.5,277.14545420286333L116.33333333333333,277.14545420286333L116.16666666666666,277.69090875644576L115.99999999999999,277.69090875644576L115.83333333333334,278.2363633100282L115.66666666666667,278.7818178636107L115.5,279.3272724171931L115.33333333333333,279.3272724171931L115.16666666666666,279.3272724171931L114.99999999999999,279.87272697077555L114.83333333333334,279.3272724171931L114.66666666666667,278.7818178636107L114.5,278.7818178636107L114.33333333333333,278.7818178636107L114.16666666666666,278.2363633100282L113.99999999999999,278.2363633100282L113.83333333333334,277.69090875644576L113.66666666666667,277.14545420286333L113.5,276.59999964928085L113.33333333333333,276.0545450956984L113.16666666666666,276.59999964928085L112.99999999999999,276.0545450956984L112.83333333333334,276.0545450956984L112.66666666666667,276.0545450956984L112.5,275.5090905421159L112.33333333333333,275.5090905421159L112.16666666666666,275.5090905421159L112.00000000000001,275.5090905421159L111.83333333333334,275.5090905421159L111.66666666666667,275.5090905421159L111.5,275.5090905421159L111.33333333333333,276.0545450956984L111.16666666666666,276.0545450956984L111.00000000000001,276.59999964928085L110.83333333333334,277.14545420286333L110.66666666666667,276.59999964928085L110.5,277.14545420286333L110.33333333333333,276.59999964928085L110.16666666666666,277.14545420286333L110.00000000000001,277.09090874953705L109.83333333333334,277.6363633031195L109.66666666666667,278.18181785670197L109.5,278.7272724102844L109.33333333333333,279.27272696386683L109.16666666666666,279.27272696386683L109.00000000000001,279.27272696386683L108.83333333333334,279.27272696386683L108.66666666666667,278.7272724102844L108.5,279.27272696386683L108.33333333333333,278.7272724102844L108.16666666666667,278.7272724102844L108,278.7272724102844L107.83333333333334,278.7272724102844L107.66666666666667,279.27272696386683L107.5,278.7272724102844L107.33333333333333,278.18181785670197L107.16666666666667,278.18181785670197L107,278.18181785670197L106.83333333333334,277.6363633031195L106.66666666666667,277.6363633031195L106.5,277.6363633031195L106.33333333333333,277.6363633031195L106.16666666666667,277.6363633031195L106,277.6363633031195L105.83333333333333,277.6363633031195L105.66666666666666,277.6363633031195L105.5,278.18181785670197L105.33333333333333,278.18181785670197L105.16666666666667,277.6363633031195L105,277.6363633031195L104.83333333333333,277.6363633031195L104.66666666666666,277.6363633031195L104.5,277.09090874953705L104.33333333333333,277.6363633031195L104.16666666666667,277.09090874953705L104,277.09090874953705L103.83333333333333,277.6363633031195L103.66666666666666,277.6363633031195L103.49999999999999,277.6363633031195L103.33333333333334,277.6363633031195L103.16666666666667,277.6363633031195L103,277.6363633031195L102.83333333333333,277.09090874953705L102.66666666666666,277.09090874953705L102.49999999999999,277.09090874953705L102.33333333333334,277.6363633031195L102.16666666666667,277.6363633031195L102,277.6363633031195L101.83333333333333,277.6363633031195L101.66666666666666,278.18181785670197L101.49999999999999,278.18181785670197L101.33333333333334,278.7272724102844L101.16666666666667,278.7272724102844L101,278.7272724102844L100.83333333333333,279.27272696386683L100.66666666666666,279.8181815174493L100.49999999999999,280.36363607103175L100.33333333333334,280.36363607103175L100.16666666666667,279.8181815174493L100,279.8181815174493L99.83333333333333,280.36363607103175L99.66666666666667,280.9090906246142L99.5,280.9090906246142L99.33333333333333,281.45454517819667L99.16666666666667,281.45454517819667L99,281.45454517819667L98.83333333333333,281.45454517819667L98.66666666666667,281.45454517819667L98.5,281.45454517819667L98.33333333333333,280.9090906246142L98.16666666666667,281.45454517819667L98,281.9999997317791L97.83333333333334,281.9999997317791L97.66666666666667,281.9999997317791L97.5,282.54545428536153L97.33333333333334,282.54545428536153L97.16666666666667,282.54545428536153L97,283.090908838944L96.83333333333334,283.090908838944L96.66666666666667,283.63636339252645L96.5,283.63636339252645L96.33333333333334,284.18181794610894L96.16666666666667,284.18181794610894L96,284.72727249969137L95.83333333333334,285.2727270532738L95.66666666666667,284.72727249969137L95.5,284.18181794610894L95.33333333333334,284.18181794610894L95.16666666666667,284.18181794610894L95,283.63636339252645L94.83333333333334,284.18181794610894L94.66666666666667,284.18181794610894L94.5,284.18181794610894L94.33333333333334,284.18181794610894L94.16666666666667,283.63636339252645L94,284.18181794610894L93.83333333333333,284.18181794610894L93.66666666666667,284.72727249969137L93.5,284.72727249969137L93.33333333333333,285.2727270532738L93.16666666666666,285.2727270532738L93,285.2727270532738L92.83333333333333,284.72727249969137L92.66666666666666,284.72727249969137L92.5,284.72727249969137L92.33333333333333,284.72727249969137L92.16666666666666,284.72727249969137L92,285.2727270532738L91.83333333333333,284.72727249969137L91.66666666666666,284.72727249969137L91.5,284.72727249969137L91.33333333333333,284.72727249969137L91.16666666666666,284.18181794610894L91,283.63636339252645L90.83333333333333,284.18181794610894L90.66666666666666,284.18181794610894L90.5,284.72727249969137L90.33333333333333,284.72727249969137L90.16666666666666,285.2727270532738L90,285.2727270532738L89.83333333333333,285.2727270532738L89.66666666666666,285.8181816068563L89.5,285.2727270532738L89.33333333333333,284.72727249969137L89.16666666666667,285.2727270532738L89,284.72727249969137L88.83333333333333,284.72727249969137L88.66666666666667,284.18181794610894L88.5,284.72727249969137L88.33333333333333,284.72727249969137L88.16666666666667,285.2727270532738L88,285.2727270532738L87.83333333333333,285.2727270532738L87.66666666666667,285.2727270532738L87.5,285.3272725066001L87.33333333333333,285.3272725066001L87.16666666666667,284.78181795301765L87,284.78181795301765L86.83333333333333,285.3272725066001L86.66666666666667,285.3272725066001L86.5,284.78181795301765L86.33333333333333,284.78181795301765L86.16666666666667,284.78181795301765L86,284.78181795301765L85.83333333333333,284.23636339943516L85.66666666666667,284.23636339943516L85.5,284.23636339943516L85.33333333333334,283.69090884585273L85.16666666666667,283.69090884585273L85,283.1454542922703L84.83333333333334,283.1454542922703L84.66666666666667,283.1454542922703L84.5,282.5999997386878L84.33333333333334,282.5999997386878L84.16666666666667,282.5999997386878L84,282.5999997386878L83.83333333333334,282.5999997386878L83.66666666666667,282.5999997386878L83.5,282.5999997386878L83.33333333333334,282.0545451851054L83.16666666666667,281.5090906315229L83,281.5090906315229L82.83333333333334,281.5090906315229L82.66666666666667,281.5090906315229L82.5,281.5090906315229L82.33333333333334,281.5090906315229L82.16666666666667,280.96363607794046L82,280.96363607794046L81.83333333333334,280.41818152435803L81.66666666666667,280.41818152435803L81.5,279.87272697077555L81.33333333333333,279.87272697077555L81.16666666666667,280.41818152435803L81,280.41818152435803L80.83333333333333,280.41818152435803L80.66666666666666,280.41818152435803L80.5,280.96363607794046L80.33333333333333,280.41818152435803L80.16666666666666,280.96363607794046L80,280.96363607794046L79.83333333333333,280.96363607794046L79.66666666666666,280.96363607794046L79.5,280.96363607794046L79.33333333333333,280.96363607794046L79.16666666666666,280.96363607794046L79,281.5090906315229L78.83333333333333,282.0545451851054L78.66666666666666,282.0545451851054L78.5,281.5090906315229L78.33333333333333,281.5090906315229L78.16666666666666,281.5090906315229L78,281.5090906315229L77.83333333333333,280.96363607794046L77.66666666666666,280.96363607794046L77.5,280.96363607794046L77.33333333333333,280.96363607794046L77.16666666666666,280.41818152435803L77,280.41818152435803L76.83333333333333,280.41818152435803L76.66666666666667,280.41818152435803L76.5,280.41818152435803L76.33333333333333,280.41818152435803L76.16666666666667,280.96363607794046L76,280.41818152435803L75.83333333333333,280.96363607794046L75.66666666666667,280.96363607794046L75.5,280.41818152435803L75.33333333333333,279.87272697077555L75.16666666666667,280.41818152435803L75,280.96363607794046L74.83333333333333,280.96363607794046L74.66666666666667,281.5090906315229L74.5,281.5090906315229L74.33333333333333,282.0545451851054L74.16666666666667,281.5090906315229L74,282.0545451851054L73.83333333333333,281.5636360848492L73.66666666666667,281.5636360848492L73.5,281.5636360848492L73.33333333333333,281.5636360848492L73.16666666666667,281.5636360848492L73,281.5636360848492L72.83333333333334,282.10909063843167L72.66666666666667,282.6545451920141L72.5,282.6545451920141L72.33333333333334,283.19999974559653L72.16666666666667,283.19999974559653L72,283.745454299179L71.83333333333334,283.745454299179L71.66666666666667,283.745454299179L71.5,283.745454299179L71.33333333333334,283.19999974559653L71.16666666666667,283.745454299179L71,283.745454299179L70.83333333333334,284.23636339943516L70.66666666666667,284.23636339943516L70.5,284.23636339943516L70.33333333333334,284.23636339943516L70.16666666666667,284.23636339943516L70,284.23636339943516L69.83333333333334,284.78181795301765L69.66666666666667,285.3272725066001L69.5,285.8727270601825L69.33333333333334,285.8727270601825L69.16666666666667,286.418181613765L69,286.418181613765L68.83333333333333,286.418181613765L68.66666666666667,286.96363616734743L68.5,286.418181613765L68.33333333333333,286.96363616734743L68.16666666666666,286.96363616734743L68,286.96363616734743L67.83333333333333,287.50909072092986L67.66666666666666,287.50909072092986L67.5,287.50909072092986L67.33333333333333,287.50909072092986L67.16666666666666,287.50909072092986L67,287.50909072092986L66.83333333333333,288.05454527451235L66.66666666666666,288.5999998280948L66.5,289.1454543816772L66.33333333333333,289.1454543816772L66.16666666666666,289.1454543816772L66,289.1454543816772L65.83333333333333,288.65454528142106L65.66666666666666,288.65454528142106L65.5,289.1999998350035L65.33333333333333,289.1999998350035L65.16666666666666,289.745454388586L65,290.2909089421684L64.83333333333333,290.83636349575085L64.66666666666666,290.83636349575085L64.5,290.83636349575085L64.33333333333333,290.83636349575085L64.16666666666667,290.83636349575085L64,290.83636349575085L63.83333333333333,290.83636349575085L63.66666666666667,291.38181804933333L63.5,291.38181804933333L63.33333333333333,291.38181804933333L63.16666666666667,291.38181804933333L63,291.38181804933333L62.83333333333333,291.38181804933333L62.66666666666667,291.38181804933333L62.5,291.38181804933333L62.33333333333333,291.38181804933333L62.16666666666667,291.38181804933333L62,291.38181804933333L61.83333333333333,291.92727260291576L61.66666666666667,292.4727271564982L61.5,292.4727271564982L61.33333333333333,292.4727271564982L61.16666666666667,293.0181817100807L61,293.0181817100807L60.83333333333333,293.5636362636631L60.66666666666667,293.5636362636631L60.5,294.10909081724554L60.333333333333336,294.10909081724554L60.16666666666667,294.10909081724554L60,294.10909081724554L59.833333333333336,294.10909081724554L59.66666666666667,294.10909081724554L59.5,294.10909081724554L59.333333333333336,294.65454537082803L59.166666666666664,294.65454537082803L59,294.65454537082803L58.833333333333336,295.19999992441046L58.666666666666664,295.74545447799295L58.5,295.74545447799295L58.333333333333336,295.74545447799295L58.166666666666664,295.74545447799295L57.99999999999999,295.74545447799295L57.833333333333336,296.2909090315754L57.666666666666664,296.2909090315754L57.49999999999999,296.8363635851578L57.333333333333336,296.8363635851578L57.166666666666664,296.8363635851578L56.99999999999999,296.8363635851578L56.833333333333336,296.8363635851578L56.666666666666664,296.8363635851578L56.49999999999999,297.3818181387403L56.333333333333336,297.3818181387403L56.166666666666664,297.3818181387403L56.00000000000001,297.3818181387403L55.833333333333336,297.3818181387403L55.666666666666664,297.3818181387403L55.50000000000001,297.3818181387403L55.333333333333336,297.3818181387403L55.166666666666664,297.3818181387403L55.00000000000001,297.3818181387403L54.833333333333336,297.3818181387403L54.666666666666664,297.92727269232273L54.50000000000001,297.92727269232273L54.333333333333336,297.92727269232273L54.166666666666664,297.92727269232273L54,297.92727269232273L53.833333333333336,298.47272724590516L53.666666666666664,298.47272724590516L53.5,298.47272724590516L53.333333333333336,298.47272724590516L53.166666666666664,298.47272724590516L53,298.47272724590516L52.83333333333333,298.47272724590516L52.666666666666664,298.47272724590516L52.5,298.47272724590516L52.33333333333333,298.47272724590516L52.166666666666664,298.47272724590516L52,298.47272724590516L51.83333333333333,299.01818179948765L51.66666666666667,299.01818179948765L51.5,298.47272724590516L51.33333333333333,298.47272724590516L51.16666666666667,298.47272724590516L51,298.47272724590516L50.83333333333333,298.47272724590516L50.66666666666667,298.47272724590516L50.5,298.47272724590516L50.33333333333333,298.47272724590516L50.16666666666667,298.47272724590516L50,298.47272724590516L49.833333333333336,297.92727269232273L49.666666666666664,297.3818181387403L49.5,297.3818181387403L49.333333333333336,297.3818181387403L49.166666666666664,297.327272685414L49,297.327272685414L48.833333333333336,297.327272685414L48.66666666666667,297.327272685414L48.5,297.327272685414L48.333333333333336,297.327272685414L48.16666666666667,297.327272685414L48,297.327272685414L47.833333333333336,297.327272685414L47.66666666666667,297.327272685414L47.5,296.7818181318316L47.333333333333336,296.2363635782491L47.16666666666667,296.2363635782491L47,296.2363635782491L46.833333333333336,296.2363635782491L46.666666666666664,296.2363635782491L46.5,296.2363635782491L46.33333333333333,296.2363635782491L46.166666666666664,295.69090902466667L46,295.69090902466667L45.83333333333333,295.69090902466667L45.666666666666664,295.69090902466667L45.5,295.69090902466667L45.33333333333333,295.69090902466667L45.166666666666664,295.69090902466667L45,295.69090902466667L44.83333333333333,295.69090902466667L44.666666666666664,295.69090902466667L44.5,295.69090902466667L44.333333333333336,295.69090902466667L44.166666666666664,295.69090902466667L44,295.69090902466667L43.833333333333336,295.69090902466667L43.666666666666664,295.69090902466667L43.5,295.69090902466667L43.333333333333336,295.69090902466667L43.166666666666664,295.69090902466667L43,295.69090902466667L42.833333333333336,295.69090902466667L42.66666666666667,295.69090902466667L42.5,295.69090902466667L42.333333333333336,295.69090902466667L42.16666666666667,295.1454544710842L42,294.59999991750175L41.833333333333336,294.59999991750175L41.66666666666667,294.0545453639193L41.5,294.0545453639193L41.333333333333336,294.0545453639193L41.16666666666667,294.0545453639193L41,294.0545453639193L40.833333333333336,294.0545453639193L40.666666666666664,294.0545453639193L40.5,294.54545446417546L40.33333333333333,294.54545446417546L40.166666666666664,293.99999991059303L40,293.99999991059303L39.83333333333333,293.99999991059303L39.666666666666664,293.4545453570106L39.5,293.4545453570106L39.33333333333333,293.4545453570106L39.166666666666664,293.4545453570106L39,293.4545453570106L38.83333333333333,293.4545453570106L38.666666666666664,293.4545453570106L38.5,293.4545453570106L38.333333333333336,293.4545453570106L38.166666666666664,293.4545453570106L38,293.4545453570106L37.833333333333336,293.4545453570106L37.666666666666664,293.4545453570106L37.5,293.4545453570106L37.333333333333336,293.4545453570106L37.166666666666664,293.4545453570106L37,293.4545453570106L36.833333333333336,292.9090908034281L36.666666666666664,292.9090908034281L36.5,292.9090908034281L36.333333333333336,292.9090908034281L36.16666666666667,292.9090908034281L36,292.9090908034281L35.833333333333336,292.9090908034281L35.66666666666667,292.9090908034281L35.5,292.9090908034281L35.333333333333336,292.9090908034281L35.16666666666667,292.9090908034281L35,292.9090908034281L34.833333333333336,293.4545453570106L34.66666666666667,293.4545453570106L34.5,293.4545453570106L34.333333333333336,293.4545453570106L34.166666666666664,293.4545453570106L34,293.4545453570106L33.83333333333333,293.4545453570106L33.666666666666664,293.4545453570106L33.5,293.4545453570106L33.33333333333333,293.4545453570106L33.166666666666664,293.99999991059303L33,294.54545446417546L32.83333333333333,294.54545446417546L32.666666666666664,294.54545446417546L32.5,295.09090901775795L32.33333333333333,295.09090901775795L32.166666666666664,295.09090901775795L32,295.09090901775795L31.833333333333336,295.09090901775795L31.666666666666664,295.09090901775795L31.5,295.09090901775795L31.333333333333336,295.09090901775795L31.166666666666664,295.09090901775795L31,295.09090901775795L30.833333333333336,295.6363635713404L30.666666666666664,296.1818181249228L30.5,296.1818181249228L30.333333333333336,296.1818181249228L30.166666666666668,296.1818181249228L30,296.1818181249228L29.833333333333336,296.1818181249228L29.666666666666668,296.1818181249228L29.5,296.7272726785053L29.333333333333332,296.7272726785053L29.166666666666668,296.7272726785053L28.999999999999996,296.7272726785053L28.833333333333332,296.7272726785053L28.666666666666668,296.7272726785053L28.499999999999996,296.7272726785053L28.333333333333332,296.7272726785053L28.166666666666668,296.7272726785053L28.000000000000004,296.7272726785053L27.833333333333332,296.7272726785053L27.666666666666668,296.7272726785053L27.500000000000004,296.7272726785053L27.333333333333332,296.7272726785053L27.166666666666668,296.7272726785053L27,296.7272726785053L26.833333333333332,296.7272726785053L26.666666666666668,296.7272726785053L26.5,296.7272726785053L26.333333333333332,296.7272726785053L26.166666666666664,296.7272726785053L26,296.7272726785053L25.833333333333336,296.7272726785053L25.666666666666664,296.7272726785053L25.5,297.27272723208773L25.333333333333336,297.8181817856702L25.166666666666664,297.8181817856702L25,298.36363633925265L24.833333333333332,298.36363633925265L24.666666666666668,298.36363633925265L24.5,298.36363633925265L24.333333333333336,298.36363633925265L24.166666666666668,298.36363633925265L24,298.36363633925265L23.833333333333336,298.36363633925265L23.666666666666668,298.36363633925265L23.5,298.9090908928351L23.333333333333332,298.9090908928351L23.166666666666664,298.9090908928351L23,299.45454544641757L22.833333333333332,298.9090908928351L22.666666666666664,298.9090908928351L22.5,298.9090908928351L22.333333333333332,298.9090908928351L22.166666666666668,298.9090908928351L22,298.9090908928351L21.833333333333332,298.9090908928351L21.666666666666668,298.9090908928351L21.5,298.9090908928351L21.333333333333336,298.9090908928351L21.166666666666668,298.9090908928351L21,298.9090908928351L20.833333333333336,298.9090908928351L20.666666666666668,298.9090908928351L20.5,298.9090908928351L20.333333333333332,298.9090908928351L20.166666666666664,299.45454544641757L20,299.45454544641757L19.833333333333332,299.45454544641757L19.666666666666664,299.45454544641757L19.5,299.45454544641757L19.333333333333332,299.45454544641757L19.166666666666668,299.45454544641757L19,299.45454544641757L18.833333333333332,299.45454544641757L18.666666666666668,299.45454544641757L18.5,299.45454544641757L18.333333333333332,299.45454544641757L18.166666666666668,299.45454544641757L18,299.45454544641757L17.833333333333336,299.45454544641757L17.666666666666668,299.45454544641757L17.5,299.45454544641757L17.333333333333336,299.45454544641757L17.166666666666668,299.45454544641757L17,299.45454544641757L16.833333333333332,299.45454544641757L16.666666666666664,299.45454544641757L16.5,299.45454544641757L16.333333333333332,299.4490358044622L16.166666666666664,299.44341372083426L16,299.4376757179562L15.833333333333332,299.4318181733516L15.666666666666668,299.4258373120185L15.5,299.41972919831653L15.333333333333332,299.41348972733067L15.166666666666668,299.4071146156713L15,299.40059939166764L14.833333333333334,299.3939393849084L14.666666666666666,299.3871297150759L14.499999999999998,299.3801652800199L14.333333333333334,299.3730407430087L14.166666666666666,299.36575051909017L14.000000000000002,299.35828876049123L13.833333333333334,299.3506493409733L13.666666666666666,299.3428258390573L13.5,299.3348115200214L13.333333333333334,299.32659931656485L13.166666666666666,299.31818180802196L13,299.3095511979969L12.833333333333332,299.3006992902789L12.666666666666668,299.2916174628799L12.5,299.2822966400231L12.333333333333334,299.27272726189005L12.166666666666668,299.2628992519156L12,299.25280198139393L11.833333333333334,299.2424242311355L11.666666666666666,299.2317541498839L11.5,299.2207792091679L11.333333333333332,299.20948615422833L11.166666666666666,299.19786095061403L11,299.18588872599634L10.833333333333334,299.17355370669327L10.666666666666668,299.1608391483347L10.5,299.1477272600274L10.333333333333334,299.1341991212977L10.166666666666666,299.12023459099606L10,299.1058122072419L9.833333333333332,299.0909090773626L9.666666666666666,299.07550075663994L9.5,299.05956111451303L9.333333333333334,299.04306218669745L9.166666666666666,299.0259740114599L9,299.0082644480319L8.833333333333334,298.98989897484734L8.666666666666668,298.97084046493876L8.5,298.9510489354184L8.333333333333332,298.9304812674854L8.166666666666666,298.9090908928351L8,298.88682744166846L7.833333333333334,298.86363634670323L7.666666666666666,298.83945839663306L7.5,298.8142292313425L7.333333333333333,298.78787876981676L7.166666666666667,298.7603305600399L7.000000000000001,298.73150103818034L6.833333333333333,298.7012986819465L6.666666666666667,298.6696230400428L6.5,298.63636361604387L6.333333333333334,298.6013985805578L6.166666666666667,300L6,300L5.833333333333333,300L5.666666666666666,300L5.5,300L5.333333333333334,300L5.166666666666667,300L5,300L4.833333333333333,300L4.666666666666667,300L4.5,300L4.333333333333334,300L4.166666666666666,300L4,300L3.833333333333333,300L3.6666666666666665,300L3.5000000000000004,300L3.3333333333333335,300L3.166666666666667,300L3,300L2.833333333333333,300L2.666666666666667,300L2.5,300L2.3333333333333335,300L2.166666666666667,300L2,300L1.8333333333333333,300L1.6666666666666667,300L1.5,300L1.3333333333333335,300L1.1666666666666667,300L1,300L0.8333333333333334,300L0.6666666666666667,300L0.5,300L0.33333333333333337,300L0.16666666666666669,300L0,300" style="fill: none; stroke: #4c78a8; stroke-width: 2;"></path></g><g class="mark-text role-title" style="pointer-events: none;"><text text-anchor="middle" transform="translate(177,-13)" style="font-family: sans-serif; font-size: 13px; font-weight: bold; fill: #000; opacity: 1;">Multi-Agent DDPG Agent Training</text></g><g class="mark-group role-axis"><g transform="translate(0.5,300.5)"><path class="background" d="M0,0h0v0h0Z" style="pointer-events: none; fill: none;"></path><g><g class="mark-rule role-axis-tick" style="pointer-events: none;"><line transform="translate(0,0)" x2="0" y2="5" style="fill: none; stroke: #888; stroke-width: 1; opacity: 1;"></line><line transform="translate(33,0)" x2="0" y2="5" style="fill: none; stroke: #888; stroke-width: 1; opacity: 1;"></line><line transform="translate(67,0)" x2="0" y2="5" style="fill: none; stroke: #888; stroke-width: 1; opacity: 1;"></line><line transform="translate(100,0)" x2="0" y2="5" style="fill: none; stroke: #888; stroke-width: 1; opacity: 1;"></line><line transform="translate(133,0)" x2="0" y2="5" style="fill: none; stroke: #888; stroke-width: 1; opacity: 1;"></line><line transform="translate(167,0)" x2="0" y2="5" style="fill: none; stroke: #888; stroke-width: 1; opacity: 1;"></line><line transform="translate(200,0)" x2="0" y2="5" style="fill: none; stroke: #888; stroke-width: 1; opacity: 1;"></line><line transform="translate(233,0)" x2="0" y2="5" style="fill: none; stroke: #888; stroke-width: 1; opacity: 1;"></line><line transform="translate(267,0)" x2="0" y2="5" style="fill: none; stroke: #888; stroke-width: 1; opacity: 1;"></line><line transform="translate(300,0)" x2="0" y2="5" style="fill: none; stroke: #888; stroke-width: 1; opacity: 1;"></line><line transform="translate(333,0)" x2="0" y2="5" style="fill: none; stroke: #888; stroke-width: 1; opacity: 1;"></line><line transform="translate(367,0)" x2="0" y2="5" style="fill: none; stroke: #888; stroke-width: 1; opacity: 1;"></line><line transform="translate(400,0)" x2="0" y2="5" style="fill: none; stroke: #888; stroke-width: 1; opacity: 1;"></line></g><g class="mark-text role-axis-label" style="pointer-events: none;"><text text-anchor="start" transform="translate(0,15)" style="font-family: sans-serif; font-size: 10px; fill: #000; opacity: 1;">0</text><text text-anchor="middle" transform="translate(33.33333333333333,15)" style="font-family: sans-serif; font-size: 10px; fill: #000; opacity: 0;">200</text><text text-anchor="middle" transform="translate(66.66666666666666,15)" style="font-family: sans-serif; font-size: 10px; fill: #000; opacity: 1;">400</text><text text-anchor="middle" transform="translate(100,15)" style="font-family: sans-serif; font-size: 10px; fill: #000; opacity: 0;">600</text><text text-anchor="middle" transform="translate(133.33333333333331,15)" style="font-family: sans-serif; font-size: 10px; fill: #000; opacity: 1;">800</text><text text-anchor="middle" transform="translate(166.66666666666669,15)" style="font-family: sans-serif; font-size: 10px; fill: #000; opacity: 0;">1,000</text><text text-anchor="middle" transform="translate(200,15)" style="font-family: sans-serif; font-size: 10px; fill: #000; opacity: 1;">1,200</text><text text-anchor="middle" transform="translate(233.33333333333334,15)" style="font-family: sans-serif; font-size: 10px; fill: #000; opacity: 0;">1,400</text><text text-anchor="middle" transform="translate(266.66666666666663,15)" style="font-family: sans-serif; font-size: 10px; fill: #000; opacity: 1;">1,600</text><text text-anchor="middle" transform="translate(300,15)" style="font-family: sans-serif; font-size: 10px; fill: #000; opacity: 0;">1,800</text><text text-anchor="middle" transform="translate(333.33333333333337,15)" style="font-family: sans-serif; font-size: 10px; fill: #000; opacity: 1;">2,000</text><text text-anchor="middle" transform="translate(366.66666666666663,15)" style="font-family: sans-serif; font-size: 10px; fill: #000; opacity: 0;">2,200</text><text text-anchor="end" transform="translate(400,15)" style="font-family: sans-serif; font-size: 10px; fill: #000; opacity: 1;">2,400</text></g><g class="mark-rule role-axis-domain" style="pointer-events: none;"><line transform="translate(0,0)" x2="400" y2="0" style="fill: none; stroke: #888; stroke-width: 1; opacity: 1;"></line></g><g class="mark-text role-axis-title" style="pointer-events: none;"><text text-anchor="middle" transform="translate(200,31)" style="font-family: sans-serif; font-size: 11px; font-weight: bold; fill: #000; opacity: 1;">Training episodes</text></g></g></g></g><g class="mark-group role-axis"><g transform="translate(0.5,0.5)"><path class="background" d="M0,0h0v0h0Z" style="pointer-events: none; fill: none;"></path><g><g class="mark-rule role-axis-tick" style="pointer-events: none;"><line transform="translate(0,300)" x2="-5" y2="0" style="fill: none; stroke: #888; stroke-width: 1; opacity: 1;"></line><line transform="translate(0,273)" x2="-5" y2="0" style="fill: none; stroke: #888; stroke-width: 1; opacity: 1;"></line><line transform="translate(0,245)" x2="-5" y2="0" style="fill: none; stroke: #888; stroke-width: 1; opacity: 1;"></line><line transform="translate(0,218)" x2="-5" y2="0" style="fill: none; stroke: #888; stroke-width: 1; opacity: 1;"></line><line transform="translate(0,191)" x2="-5" y2="0" style="fill: none; stroke: #888; stroke-width: 1; opacity: 1;"></line><line transform="translate(0,164)" x2="-5" y2="0" style="fill: none; stroke: #888; stroke-width: 1; opacity: 1;"></line><line transform="translate(0,136)" x2="-5" y2="0" style="fill: none; stroke: #888; stroke-width: 1; opacity: 1;"></line><line transform="translate(0,109)" x2="-5" y2="0" style="fill: none; stroke: #888; stroke-width: 1; opacity: 1;"></line><line transform="translate(0,82)" x2="-5" y2="0" style="fill: none; stroke: #888; stroke-width: 1; opacity: 1;"></line><line transform="translate(0,55)" x2="-5" y2="0" style="fill: none; stroke: #888; stroke-width: 1; opacity: 1;"></line><line transform="translate(0,27)" x2="-5" y2="0" style="fill: none; stroke: #888; stroke-width: 1; opacity: 1;"></line><line transform="translate(0,0)" x2="-5" y2="0" style="fill: none; stroke: #888; stroke-width: 1; opacity: 1;"></line></g><g class="mark-text role-axis-label" style="pointer-events: none;"><text text-anchor="end" transform="translate(-7,303)" style="font-family: sans-serif; font-size: 10px; fill: #000; opacity: 1;">0.00</text><text text-anchor="end" transform="translate(-7,275.72727272727275)" style="font-family: sans-serif; font-size: 10px; fill: #000; opacity: 1;">0.05</text><text text-anchor="end" transform="translate(-7,248.45454545454544)" style="font-family: sans-serif; font-size: 10px; fill: #000; opacity: 1;">0.10</text><text text-anchor="end" transform="translate(-7,221.1818181818182)" style="font-family: sans-serif; font-size: 10px; fill: #000; opacity: 1;">0.15</text><text text-anchor="end" transform="translate(-7,193.9090909090909)" style="font-family: sans-serif; font-size: 10px; fill: #000; opacity: 1;">0.20</text><text text-anchor="end" transform="translate(-7,166.63636363636365)" style="font-family: sans-serif; font-size: 10px; fill: #000; opacity: 1;">0.25</text><text text-anchor="end" transform="translate(-7,139.36363636363637)" style="font-family: sans-serif; font-size: 10px; fill: #000; opacity: 1;">0.30</text><text text-anchor="end" transform="translate(-7,112.09090909090912)" style="font-family: sans-serif; font-size: 10px; fill: #000; opacity: 1;">0.35</text><text text-anchor="end" transform="translate(-7,84.81818181818181)" style="font-family: sans-serif; font-size: 10px; fill: #000; opacity: 1;">0.40</text><text text-anchor="end" transform="translate(-7,57.54545454545456)" style="font-family: sans-serif; font-size: 10px; fill: #000; opacity: 1;">0.45</text><text text-anchor="end" transform="translate(-7,30.27272727272731)" style="font-family: sans-serif; font-size: 10px; fill: #000; opacity: 1;">0.50</text><text text-anchor="end" transform="translate(-7,3)" style="font-family: sans-serif; font-size: 10px; fill: #000; opacity: 1;">0.55</text></g><g class="mark-rule role-axis-domain" style="pointer-events: none;"><line transform="translate(0,300)" x2="0" y2="-300" style="fill: none; stroke: #888; stroke-width: 1; opacity: 1;"></line></g><g class="mark-text role-axis-title" style="pointer-events: none;"><text text-anchor="middle" transform="translate(-34,150) rotate(-90) translate(0,-2)" style="font-family: sans-serif; font-size: 11px; font-weight: bold; fill: #000; opacity: 1;">Average score (100 episodes)</text></g></g></g></g></g></g></g></g></svg>