<?xml version="1.0" encoding="UTF-8" standalone="no"?>
<svg
   xmlns:dc="http://purl.org/dc/elements/1.1/"
   xmlns:cc="http://creativecommons.org/ns#"
   xmlns:rdf="http://www.w3.org/1999/02/22-rdf-syntax-ns#"
   xmlns:svg="http://www.w3.org/2000/svg"
   xmlns="http://www.w3.org/2000/svg"
   xmlns:sodipodi="http://sodipodi.sourceforge.net/DTD/sodipodi-0.dtd"
   xmlns:inkscape="http://www.inkscape.org/namespaces/inkscape"
   class="marks"
   width="463"
   height="369"
   viewBox="0 0 463 369"
   version="1.1"
   id="svg2"
   inkscape:version="0.91 r13725"
   sodipodi:docname="run1.svg"
   inkscape:export-filename="/Volumes/bigdrive/projects/rl/unityml-tennis/data/ddpg/run1.png"
   inkscape:export-xdpi="98.82"
   inkscape:export-ydpi="98.82">
  <metadata
     id="metadata224">
    <rdf:RDF>
      <cc:Work
         rdf:about="">
        <dc:format>image/svg+xml</dc:format>
        <dc:type
           rdf:resource="http://purl.org/dc/dcmitype/StillImage" />
        <dc:title></dc:title>
      </cc:Work>
    </rdf:RDF>
  </metadata>
  <defs
     id="defs222" />
  <sodipodi:namedview
     pagecolor="#ffffff"
     bordercolor="#666666"
     borderopacity="1"
     objecttolerance="10"
     gridtolerance="10"
     guidetolerance="10"
     inkscape:pageopacity="1"
     inkscape:pageshadow="2"
     inkscape:window-width="1032"
     inkscape:window-height="1201"
     id="namedview220"
     showgrid="false"
     inkscape:zoom="0.59179266"
     inkscape:cx="231.5"
     inkscape:cy="184.5"
     inkscape:window-x="0"
     inkscape:window-y="0"
     inkscape:window-maximized="0"
     inkscape:current-layer="svg2" />
  <g
     transform="translate(56,29)"
     id="g4">
    <g
       class="mark-group role-frame root"
       id="g6">
      <g
         transform="translate(0,0)"
         id="g8">
        <path
           class="background"
           d="M0.5,0.5h400v300h-400Z"
           style="fill: none; stroke: #ddd;"
           id="path10" />
        <g
           id="g12">
          <g
             class="mark-group role-axis"
             id="g14">
            <g
               transform="translate(0.5,300.5)"
               id="g16">
              <path
                 class="background"
                 d="M0,0h0v0h0Z"
                 style="pointer-events: none; fill: none;"
                 id="path18" />
              <g
                 id="g20">
                <g
                   class="mark-rule role-axis-grid"
                   style="pointer-events: none;"
                   id="g22">
                  <line
                     transform="translate(0,-300)"
                     x2="0"
                     y2="300"
                     style="fill: none; stroke: #ddd; stroke-width: 1; opacity: 1;"
                     id="line24" />
                  <line
                     transform="translate(40,-300)"
                     x2="0"
                     y2="300"
                     style="fill: none; stroke: #ddd; stroke-width: 1; opacity: 1;"
                     id="line26" />
                  <line
                     transform="translate(80,-300)"
                     x2="0"
                     y2="300"
                     style="fill: none; stroke: #ddd; stroke-width: 1; opacity: 1;"
                     id="line28" />
                  <line
                     transform="translate(120,-300)"
                     x2="0"
                     y2="300"
                     style="fill: none; stroke: #ddd; stroke-width: 1; opacity: 1;"
                     id="line30" />
                  <line
                     transform="translate(160,-300)"
                     x2="0"
                     y2="300"
                     style="fill: none; stroke: #ddd; stroke-width: 1; opacity: 1;"
                     id="line32" />
                  <line
                     transform="translate(200,-300)"
                     x2="0"
                     y2="300"
                     style="fill: none; stroke: #ddd; stroke-width: 1; opacity: 1;"
                     id="line34" />
                  <line
                     transform="translate(240,-300)"
                     x2="0"
                     y2="300"
                     style="fill: none; stroke: #ddd; stroke-width: 1; opacity: 1;"
                     id="line36" />
                  <line
                     transform="translate(280,-300)"
                     x2="0"
                     y2="300"
                     style="fill: none; stroke: #ddd; stroke-width: 1; opacity: 1;"
                     id="line38" />
                  <line
                     transform="translate(320,-300)"
                     x2="0"
                     y2="300"
                     style="fill: none; stroke: #ddd; stroke-width: 1; opacity: 1;"
                     id="line40" />
                  <line
                     transform="translate(360,-300)"
                     x2="0"
                     y2="300"
                     style="fill: none; stroke: #ddd; stroke-width: 1; opacity: 1;"
                     id="line42" />
                  <line
                     transform="translate(400,-300)"
                     x2="0"
                     y2="300"
                     style="fill: none; stroke: #ddd; stroke-width: 1; opacity: 1;"
                     id="line44" />
                </g>
              </g>
            </g>
          </g>
          <g
             class="mark-group role-axis"
             id="g46">
            <g
               transform="translate(0.5,0.5)"
               id="g48">
              <path
                 class="background"
                 d="M0,0h0v0h0Z"
                 style="pointer-events: none; fill: none;"
                 id="path50" />
              <g
                 id="g52">
                <g
                   class="mark-rule role-axis-grid"
                   style="pointer-events: none;"
                   id="g54">
                  <line
                     transform="translate(0,300)"
                     x2="400"
                     y2="0"
                     style="fill: none; stroke: #ddd; stroke-width: 1; opacity: 1;"
                     id="line56" />
                  <line
                     transform="translate(0,273)"
                     x2="400"
                     y2="0"
                     style="fill: none; stroke: #ddd; stroke-width: 1; opacity: 1;"
                     id="line58" />
                  <line
                     transform="translate(0,245)"
                     x2="400"
                     y2="0"
                     style="fill: none; stroke: #ddd; stroke-width: 1; opacity: 1;"
                     id="line60" />
                  <line
                     transform="translate(0,218)"
                     x2="400"
                     y2="0"
                     style="fill: none; stroke: #ddd; stroke-width: 1; opacity: 1;"
                     id="line62" />
                  <line
                     transform="translate(0,191)"
                     x2="400"
                     y2="0"
                     style="fill: none; stroke: #ddd; stroke-width: 1; opacity: 1;"
                     id="line64" />
                  <line
                     transform="translate(0,164)"
                     x2="400"
                     y2="0"
                     style="fill: none; stroke: #ddd; stroke-width: 1; opacity: 1;"
                     id="line66" />
                  <line
                     transform="translate(0,136)"
                     x2="400"
                     y2="0"
                     style="fill: none; stroke: #ddd; stroke-width: 1; opacity: 1;"
                     id="line68" />
                  <line
                     transform="translate(0,109)"
                     x2="400"
                     y2="0"
                     style="fill: none; stroke: #ddd; stroke-width: 1; opacity: 1;"
                     id="line70" />
                  <line
                     transform="translate(0,82)"
                     x2="400"
                     y2="0"
                     style="fill: none; stroke: #ddd; stroke-width: 1; opacity: 1;"
                     id="line72" />
                  <line
                     transform="translate(0,55)"
                     x2="400"
                     y2="0"
                     style="fill: none; stroke: #ddd; stroke-width: 1; opacity: 1;"
                     id="line74" />
                  <line
                     transform="translate(0,27)"
                     x2="400"
                     y2="0"
                     style="fill: none; stroke: #ddd; stroke-width: 1; opacity: 1;"
                     id="line76" />
                  <line
                     transform="translate(0,0)"
                     x2="400"
                     y2="0"
                     style="fill: none; stroke: #ddd; stroke-width: 1; opacity: 1;"
                     id="line78" />
                </g>
              </g>
            </g>
          </g>
          <g
             class="mark-line role-mark marks"
             id="g80">
            <path
               d="M399.6,34.909086877649486L399.2,34.909086877649486L398.8,34.909086877649486L398.4,34.909086877649486L398,34.909086877649486L397.6,34.909086877649486L397.2,29.45454134182495L396.8,29.45454134182495L396.4,29.45454134182495L396,23.99999580600047L395.6,18.545450270175934L395.2,18.545450270175934L394.8,13.090904734351454L394.4,13.636359267614125L394,13.636359267614125L393.6,13.636359267614125L393.2,13.636359267614125L392.8,19.090904803438605L392.4,19.636359336701275L392,25.09090487252587L391.59999999999997,19.636359336701275L391.2,25.09090487252587L390.8,30.54545040835029L390.4,35.999995944174884L390,35.999995944174884L389.59999999999997,30.54545040835029L389.2,40.909086946736636L388.8,41.454541479999364L388.4,41.454541479999364L388,41.454541479999364L387.59999999999997,41.454541479999364L387.2,35.999995944174884L386.8,35.999995944174884L386.4,35.999995944174884L386,35.999995944174884L385.59999999999997,41.454541479999364L385.2,41.454541479999364L384.8,41.454541479999364L384.4,35.999995944174884L384,30.54545040835029L383.59999999999997,40.909086946736636L383.2,35.45454141091221L382.8,35.45454141091221L382.4,35.45454141091221L382,35.45454141091221L381.59999999999997,40.909086946736636L381.2,40.909086946736636L380.79999999999995,40.909086946736636L380.4,46.3636324825612L380,46.3636324825612L379.59999999999997,46.3636324825612L379.2,46.3636324825612L378.79999999999995,46.3636324825612L378.4,46.3636324825612L378,51.81817801838571L377.59999999999997,46.3636324825612L377.2,40.909086946736636L376.79999999999995,35.45454141091221L376.4,35.45454141091221L376,29.99999587508762L375.59999999999997,24.54545033926314L375.2,24.54545033926314L374.8,24.54545033926314L374.40000000000003,24.54545033926314L374,29.99999587508762L373.6,29.99999587508762L373.20000000000005,35.45454141091221L372.8,40.909086946736636L372.40000000000003,40.909086946736636L372,46.3636324825612L371.6,46.3636324825612L371.20000000000005,46.3636324825612L370.8,46.3636324825612L370.40000000000003,46.3636324825612L370,51.81817801838571L369.6,57.272723554210245L369.20000000000005,57.272723554210245L368.8,57.272723554210245L368.40000000000003,62.727269090034724L368,62.727269090034724L367.6,68.18181462585926L367.2,73.63636016168377L366.8,79.0909056975083L366.40000000000003,73.63636016168377L366,73.63636016168377L365.6,79.0909056975083L365.2,84.54545123333278L364.8,89.45454223589465L364.40000000000003,94.90908777171913L364,100.36363330754367L363.6,100.36363330754367L363.2,100.36363330754367L362.8,100.36363330754367L362.40000000000003,105.81817884336817L362,111.27272437919271L361.6,111.27272437919271L361.2,111.27272437919271L360.8,116.72726991501719L360.40000000000003,122.18181545084173L360,127.63636098666626L359.6,133.09090652249077L359.2,133.09090652249077L358.8,133.09090652249077L358.40000000000003,133.09090652249077L358,133.09090652249077L357.6,133.09090652249077L357.2,133.09090652249077L356.8,133.09090652249077L356.4,138.54545205831528L356,138.54545205831528L355.6,143.99999759413978L355.2,143.99999759413978L354.8,149.4545431299643L354.4,154.36363413252613L354,154.36363413252613L353.6,154.36363413252613L353.2,154.36363413252613L352.8,154.36363413252613L352.4,159.27272513508797L352,159.27272513508797L351.6,164.72727067091247L351.2,164.72727067091247L350.8,164.72727067091247L350.4,164.72727067091247L350,164.72727067091247L349.6,170.18181620673698L349.2,170.18181620673698L348.8,175.09090720929882L348.4,175.09090720929882L348,175.09090720929882L347.6,175.09090720929882L347.2,180.54545274512333L346.8,180.54545274512333L346.4,180.54545274512333L346,180.54545274512333L345.6,180.54545274512333L345.2,180.54545274512333L344.8,175.09090720929882L344.4,180.54545274512333L344,180.54545274512333L343.6,180.54545274512333L343.2,185.99999828094786L342.8,180.54545274512333L342.4,180.54545274512333L342,180.54545274512333L341.59999999999997,180.54545274512333L341.2,180.54545274512333L340.8,185.99999828094786L340.4,185.99999828094786L340,191.45454381677237L339.59999999999997,196.90908935259688L339.2,202.36363488842142L338.8,202.36363488842142L338.4,202.36363488842142L338,202.36363488842142L337.59999999999997,207.8181804242459L337.2,213.27272596007043L336.8,218.72727149589497L336.4,218.72727149589497L336,224.18181703171945L335.59999999999997,229.63636256754398L335.2,229.63636256754398L334.8,229.63636256754398L334.4,235.0909081033685L334,230.18181710080665L333.59999999999997,230.18181710080665L333.2,230.18181710080665L332.8,230.18181710080665L332.4,230.18181710080665L332,230.18181710080665L331.59999999999997,235.0909081033685L331.2,235.0909081033685L330.79999999999995,240.545453639193L330.4,235.6363626366312L330,235.6363626366312L329.59999999999997,235.6363626366312L329.2,241.0909081724557L328.79999999999995,235.6363626366312L328.4,235.6363626366312L328,241.0909081724557L327.59999999999997,241.0909081724557L327.2,236.18181716989386L326.79999999999995,236.18181716989386L326.4,241.6363627057184L326,236.72727170315656L325.59999999999997,236.72727170315656L325.2,231.27272616733205L324.8,231.27272616733205L324.40000000000003,231.27272616733205L324,226.36363516477022L323.6,226.36363516477022L323.20000000000005,226.36363516477022L322.8,226.36363516477022L322.40000000000003,226.36363516477022L322,226.36363516477022L321.6,226.36363516477022L321.20000000000005,226.36363516477022L320.8,226.36363516477022L320.40000000000003,226.36363516477022L320,226.36363516477022L319.6,226.36363516477022L319.20000000000005,226.36363516477022L318.8,226.36363516477022L318.40000000000003,226.36363516477022L318,226.36363516477022L317.6,226.36363516477022L317.2,231.81818070059472L316.8,226.36363516477022L316.40000000000003,226.36363516477022L316,231.81818070059472L315.6,231.81818070059472L315.2,231.81818070059472L314.8,231.81818070059472L314.40000000000003,231.81818070059472L314,226.90908969803291L313.6,221.99999869547108L313.2,227.45454423129559L312.8,222.54545322873378L312.40000000000003,222.54545322873378L312,222.54545322873378L311.6,217.09090769290924L311.2,217.09090769290924L310.8,217.09090769290924L310.40000000000003,217.09090769290924L310,217.09090769290924L309.6,217.09090769290924L309.2,212.18181669034743L308.8,212.18181669034743L308.40000000000003,206.7272711545229L308,201.2727256186984L307.6,196.36363461613655L307.2,196.36363461613655L306.8,196.36363461613655L306.4,196.36363461613655L306,190.90908908031204L305.6,190.90908908031204L305.2,185.45454354448754L304.8,190.90908908031204L304.4,190.90908908031204L304,196.36363461613655L303.6,191.45454361357474L303.2,191.45454361357474L302.8,196.90908914939922L302.4,191.45454361357474L302,185.9999980777502L301.6,180.5454525419257L301.2,175.63636153936386L300.8,175.63636153936386L300.4,170.18181600353935L300,170.18181600353935L299.6,165.27272500097752L299.2,165.27272500097752L298.8,165.27272500097752L298.4,165.27272500097752L298,159.818179465153L297.6,159.818179465153L297.2,159.818179465153L296.8,159.818179465153L296.4,154.3636339293285L296,149.45454292676666L295.6,149.45454292676666L295.2,149.45454292676666L294.8,143.99999739094216L294.4,143.99999739094216L294,143.45454285767946L293.6,137.99999732185495L293.2,132.54545178603044L292.8,127.0909062502059L292.4,127.0909062502059L292,121.6363607143814L291.59999999999997,116.18181517855686L291.2,116.18181517855686L290.8,116.18181517855686L290.4,121.09090618111873L290,116.18181517855686L289.59999999999997,111.27272417599505L289.2,105.81817864017052L288.8,111.27272417599505L288.4,111.27272417599505L288,111.27272417599505L287.59999999999997,106.36363317343321L287.2,111.27272417599505L286.8,106.36363317343321L286.4,101.4545421708714L286,106.36363317343321L285.59999999999997,100.9090876376087L285.2,101.4545421708714L284.8,101.4545421708714L284.4,101.4545421708714L284,106.36363317343321L283.59999999999997,101.4545421708714L283.2,101.4545421708714L282.8,101.4545421708714L282.4,96.54545116830954L282,96.54545116830954L281.59999999999997,91.09090563248506L281.2,91.09090563248506L280.79999999999995,91.09090563248506L280.4,86.1818146299232L280,81.27272362736139L279.59999999999997,81.27272362736139L279.2,75.81817809153685L278.79999999999995,75.81817809153685L278.4,75.81817809153685L278,75.81817809153685L277.59999999999997,76.36363262479955L277.2,70.90908708897504L276.79999999999995,70.90908708897504L276.4,70.90908708897504L276,65.9999960864132L275.59999999999997,65.9999960864132L275.2,65.9999960864132L274.8,65.9999960864132L274.40000000000003,65.9999960864132L274,70.90908708897504L273.6,75.81817809153685L273.20000000000005,75.81817809153685L272.8,80.72726909409872L272.40000000000003,80.72726909409872L272,80.72726909409872L271.6,81.27272362736139L271.20000000000005,81.27272362736139L270.8,76.36363262479955L270.40000000000003,70.90908708897504L270,65.4545415531505L269.6,59.999996017326026L269.20000000000005,64.90908701988783L268.8,59.999996017326026L268.40000000000003,65.4545415531505L268,65.9999960864132L267.6,65.4545415531505L267.2,60.5454505505887L266.8,60.5454505505887L266.40000000000003,60.5454505505887L266,65.9999960864132L265.6,65.9999960864132L265.2,71.45454162223774L264.8,71.45454162223774L264.40000000000003,71.45454162223774L264,71.45454162223774L263.6,71.45454162223774L263.2,71.45454162223774L262.8,71.45454162223774L262.40000000000003,76.90908715806222L262,82.36363269388676L261.6,87.8181782297113L261.2,87.8181782297113L260.8,87.8181782297113L260.40000000000003,88.36363276297396L260,88.36363276297396L259.6,93.2727237655358L259.2,93.2727237655358L258.8,88.36363276297396L258.40000000000003,83.45454176041213L258,83.45454176041213L257.6,83.45454176041213L257.2,83.45454176041213L256.8,83.45454176041213L256.4,88.90908729623666L256,88.90908729623666L255.6,83.45454176041213L255.20000000000002,77.99999622458762L254.8,78.54545075785032L254.4,78.54545075785032L254,73.09090522202578L253.6,78.54545075785032L253.2,83.99999629367483L252.8,84.5454508269375L252.4,84.5454508269375L252,89.99999636276203L251.6,95.45454189858654L251.2,90.5454508960247L250.8,90.5454508960247L250.4,90.5454508960247L250,95.45454189858654L249.6,100.36363290114838L249.2,105.81817843697289L248.8,105.81817843697289L248.4,105.81817843697289L248,105.81817843697289L247.6,105.27272390371019L247.2,105.27272390371019L246.8,110.18181490627202L246.4,109.63636037300935L246,109.63636037300935L245.6,109.63636037300935L245.2,114.54545137557116L244.79999999999998,109.09090583974665L244.4,109.09090583974665L244,109.09090583974665L243.6,113.99999684230849L243.2,113.99999684230849L242.79999999999998,113.99999684230849L242.4,118.90908784487033L242,113.45454230904579L241.6,118.90908784487033L241.2,107.99999677322126L240.79999999999998,102.54545123739678L240.39999999999998,107.45454223995858L240,112.36363324252042L239.6,106.90908770669589L239.2,112.36363324252042L238.79999999999998,106.90908770669589L238.39999999999998,101.4545421708714L238,101.4545421708714L237.6,101.4545421708714L237.2,101.4545421708714L236.79999999999998,106.90908770669589L236.39999999999998,106.90908770669589L236,106.36363317343321L235.6,100.9090876376087L235.2,95.45454210178417L234.79999999999998,89.99999656595969L234.39999999999998,84.54545103013515L234,84.54545103013515L233.6,84.54545103013515L233.2,84.54545103013515L232.79999999999998,79.09090549431065L232.39999999999998,79.09090549431065L231.99999999999997,74.18181449174881L231.6,79.09090549431065L231.2,74.18181449174881L230.79999999999998,79.09090549431065L230.39999999999998,84.54545103013515L229.99999999999997,84.54545103013515L229.6,89.99999656595969L229.2,89.99999656595969L228.79999999999998,94.9090875685215L228.39999999999998,89.99999656595969L227.99999999999997,94.9090875685215L227.59999999999997,94.9090875685215L227.2,99.81817857108334L226.79999999999998,94.3636330352588L226.39999999999998,83.45454196360978L225.99999999999997,77.99999642778528L225.59999999999997,77.99999642778528L225.2,72.54545089196074L224.8,72.54545089196074L224.40000000000003,61.636359820311725L224.00000000000003,56.18181428448722L223.60000000000002,61.090905287049026L223.20000000000002,61.090905287049026L222.8,55.636359751224546L222.40000000000003,55.636359751224546L222.00000000000003,55.636359751224546L221.60000000000002,55.636359751224546L221.20000000000002,60.545450753786355L220.8,60.545450753786355L220.4,59.999996220523656L220.00000000000003,49.09090514887464L219.60000000000002,49.09090514887464L219.20000000000002,49.09090514887464L218.8,48.54545061561194L218.4,47.99999608234927L218.00000000000003,53.45454161817375L217.60000000000002,47.99999608234927L217.20000000000002,47.99999608234927L216.8,47.99999608234927L216.4,47.99999608234927L216,52.90908708491108L215.60000000000002,58.363632620735615L215.20000000000002,63.818178156560094L214.8,68.72726915912196L214.4,68.72726915912196L214,79.63636023077098L213.60000000000002,79.63636023077098L213.20000000000002,79.63636023077098L212.8,84.54545123333278L212.4,84.54545123333278L212,84.54545123333278L211.60000000000002,84.54545123333278L211.20000000000002,89.45454223589465L210.8,89.45454223589465L210.4,89.45454223589465L210,89.45454223589465L209.60000000000002,89.45454223589465L209.20000000000002,89.45454223589465L208.8,89.45454223589465L208.4,89.45454223589465L208,89.45454223589465L207.6,94.90908777171913L207.20000000000002,94.90908777171913L206.8,89.45454223589465L206.4,94.90908777171913L206,89.45454223589465L205.6,94.90908777171913L205.20000000000002,94.90908777171913L204.8,100.36363330754367L204.4,100.36363330754367L204,100.36363330754367L203.6,100.36363330754367L203.2,100.36363330754367L202.8,100.36363330754367L202.4,100.36363330754367L202,105.81817884336817L201.6,105.81817884336817L201.2,116.72726991501719L200.8,122.18181545084173L200.4,122.18181545084173L200,122.18181545084173L199.6,127.63636098666626L199.2,127.63636098666626L198.8,133.09090652249077L198.4,138.54545205831528L198,138.54545205831528L197.6,143.4545430608771L197.2,148.90908859670162L196.8,148.90908859670162L196.4,148.90908859670162L196,154.36363413252613L195.6,159.81817966835064L195.2,165.27272520417515L194.79999999999998,170.72727073999968L194.4,176.1818162758242L194,176.1818162758242L193.6,176.1818162758242L193.2,176.1818162758242L192.79999999999998,181.63636181164873L192.4,181.63636181164873L192,186.54545281421053L191.6,186.54545281421053L191.2,191.45454381677237L190.79999999999998,191.45454381677237L190.39999999999998,191.45454381677237L190,196.90908935259688L189.6,196.90908935259688L189.2,196.90908935259688L188.79999999999998,196.90908935259688L188.39999999999998,201.81818035515872L188,201.81818035515872L187.6,207.27272589098322L187.20000000000002,207.27272589098322L186.8,212.72727142680776L186.4,223.63636249845678L186,229.0909080342813L185.60000000000002,229.0909080342813L185.20000000000002,234.54545357010582L184.8,234.54545357010582L184.4,245.45454464175484L184,250.90909017757934L183.6,250.90909017757934L183.20000000000002,245.45454464175484L182.8,250.90909017757934L182.4,250.90909017757934L182,250.90909017757934L181.6,250.90909017757934L181.20000000000002,250.90909017757934L180.8,250.90909017757934L180.4,256.3636357134039L180,267.2727267850529L179.6,267.2727267850529L179.20000000000002,267.2727267850529L178.8,272.72727232087743L178.4,278.1818178567019L178,278.1818178567019L177.6,283.63636339252645L177.2,283.63636339252645L176.8,283.63636339252645L176.4,283.63636339252645L176,283.63636339252645L175.6,283.63636339252645L175.2,283.63636339252645L174.8,283.63636339252645L174.4,283.63636339252645L174,283.63636339252645L173.6,283.63636339252645L173.2,283.63636339252645L172.8,283.63636339252645L172.4,283.63636339252645L172,283.63636339252645L171.6,283.63636339252645L171.2,283.63636339252645L170.79999999999998,283.63636339252645L170.4,283.63636339252645L170,283.63636339252645L169.6,283.63636339252645L169.2,283.63636339252645L168.79999999999998,283.63636339252645L168.4,283.63636339252645L168,283.63636339252645L167.6,283.63636339252645L167.2,283.63636339252645L166.79999999999998,289.090908928351L166.4,289.090908928351L166,294.54545446417546L165.6,294.54545446417546L165.2,294.54545446417546L164.79999999999998,294.54545446417546L164.39999999999998,294.54545446417546L164,294.54545446417546L163.6,294.54545446417546L163.2,294.54545446417546L162.79999999999998,294.54545446417546L162.4,294.54545446417546L162,294.54545446417546L161.60000000000002,294.54545446417546L161.20000000000002,294.54545446417546L160.8,294.54545446417546L160.4,294.54545446417546L160,294.54545446417546L159.60000000000002,294.54545446417546L159.20000000000002,294.54545446417546L158.8,294.54545446417546L158.4,294.54545446417546L158,294.54545446417546L157.6,294.54545446417546L157.20000000000002,294.54545446417546L156.8,294.54545446417546L156.4,294.54545446417546L156,294.54545446417546L155.6,294.54545446417546L155.20000000000002,294.54545446417546L154.8,294.54545446417546L154.4,294.54545446417546L154,294.54545446417546L153.6,294.54545446417546L153.2,294.54545446417546L152.8,294.54545446417546L152.4,294.54545446417546L152,294.54545446417546L151.6,294.54545446417546L151.2,294.54545446417546L150.8,294.54545446417546L150.4,294.54545446417546L150,294.54545446417546L149.6,294.54545446417546L149.2,294.54545446417546L148.8,294.54545446417546L148.4,294.54545446417546L148,294.54545446417546L147.6,294.54545446417546L147.2,294.54545446417546L146.8,294.54545446417546L146.4,294.54545446417546L146,294.54545446417546L145.6,294.54545446417546L145.2,294.54545446417546L144.79999999999998,294.54545446417546L144.4,294.54545446417546L144,294.54545446417546L143.6,294.54545446417546L143.2,300L142.79999999999998,300L142.4,300L142,300L141.6,300L141.2,300L140.79999999999998,300L140.39999999999998,300L140,300L139.6,300L139.2,300L138.79999999999998,300L138.39999999999998,300L138,294.54545446417546L137.6,289.090908928351L137.20000000000002,289.090908928351L136.8,283.63636339252645L136.4,283.63636339252645L136,283.63636339252645L135.60000000000002,283.63636339252645L135.20000000000002,283.63636339252645L134.8,283.63636339252645L134.4,283.63636339252645L134,283.63636339252645L133.6,283.63636339252645L133.20000000000002,283.63636339252645L132.8,283.63636339252645L132.4,283.63636339252645L132,283.63636339252645L131.6,283.63636339252645L131.20000000000002,283.63636339252645L130.8,283.63636339252645L130.4,283.63636339252645L130,283.63636339252645L129.6,283.63636339252645L129.20000000000002,283.63636339252645L128.8,283.63636339252645L128.4,283.63636339252645L128,283.63636339252645L127.60000000000001,283.63636339252645L127.2,283.63636339252645L126.8,283.63636339252645L126.4,283.63636339252645L126,283.63636339252645L125.6,283.63636339252645L125.2,283.63636339252645L124.8,283.63636339252645L124.4,278.1818178567019L124,278.1818178567019L123.6,278.1818178567019L123.2,278.1818178567019L122.8,278.1818178567019L122.39999999999999,278.1818178567019L122,278.1818178567019L121.6,278.1818178567019L121.2,278.1818178567019L120.8,278.1818178567019L120.39999999999999,278.1818178567019L120,278.1818178567019L119.6,278.1818178567019L119.19999999999999,278.1818178567019L118.8,278.1818178567019L118.39999999999999,278.1818178567019L118,278.1818178567019L117.6,273.2727268541401L117.19999999999999,267.81818131831557L116.8,267.81818131831557L116.39999999999999,267.81818131831557L115.99999999999999,267.81818131831557L115.6,267.81818131831557L115.19999999999999,262.90909021415496L114.8,262.90909021415496L114.39999999999999,262.90909021415496L113.99999999999999,262.90909021415496L113.6,262.90909021415496L113.19999999999999,262.90909021415496L112.79999999999998,262.90909021415496L112.4,262.90909021415496L112.00000000000001,262.90909021415496L111.60000000000001,262.90909021415496L111.20000000000002,262.90909021415496L110.80000000000001,262.90909021415496L110.4,262.90909021415496L110.00000000000001,262.90909021415496L109.60000000000001,262.90909021415496L109.2,262.90909021415496L108.80000000000001,262.90909021415496L108.4,262.90909021415496L108,262.90909021415496L107.60000000000001,262.90909021415496L107.2,262.90909021415496L106.80000000000001,262.90909021415496L106.4,262.90909021415496L106,262.90909021415496L105.60000000000001,262.90909021415496L105.2,262.90909021415496L104.80000000000001,262.90909021415496L104.4,262.90909021415496L104,262.90909021415496L103.60000000000001,262.90909021415496L103.2,262.90909021415496L102.8,262.90909021415496L102.4,262.90909021415496L102,262.90909021415496L101.6,262.90909021415496L101.2,262.90909021415496L100.8,257.4545446783304L100.4,257.4545446783304L100,257.4545446783304L99.6,257.4545446783304L99.2,257.4545446783304L98.8,257.4545446783304L98.4,257.4545446783304L98,262.90909021415496L97.6,268.36363574997944L97.2,268.36363574997944L96.8,273.818181285804L96.39999999999999,273.818181285804L96,273.818181285804L95.6,273.818181285804L95.19999999999999,273.818181285804L94.8,273.818181285804L94.39999999999999,273.818181285804L94,273.818181285804L93.60000000000001,273.818181285804L93.2,273.818181285804L92.80000000000001,273.818181285804L92.4,273.818181285804L92,273.818181285804L91.60000000000001,273.818181285804L91.2,273.818181285804L90.8,273.818181285804L90.4,273.818181285804L90,273.818181285804L89.60000000000001,273.818181285804L89.2,273.818181285804L88.8,273.818181285804L88.4,273.818181285804L88,273.818181285804L87.6,273.818181285804L87.2,273.818181285804L86.8,273.818181285804L86.4,273.818181285804L86,273.818181285804L85.6,273.818181285804L85.2,273.818181285804L84.8,273.818181285804L84.39999999999999,279.2727268216285L84,279.2727268216285L83.6,279.2727268216285L83.2,279.2727268216285L82.8,279.2727268216285L82.39999999999999,279.2727268216285L82,279.2727268216285L81.6,279.2727268216285L81.2,279.2727268216285L80.80000000000001,279.2727268216285L80.4,279.2727268216285L80,279.2727268216285L79.60000000000001,279.2727268216285L79.2,279.2727268216285L78.8,279.2727268216285L78.4,279.2727268216285L78,279.2727268216285L77.60000000000001,284.1818178241903L77.2,289.63636336001485L76.8,289.63636336001485L76.4,289.63636336001485L76,289.63636336001485L75.6,289.63636336001485L75.2,294.54545446417546L74.8,294.54545446417546L74.4,294.54545446417546L74,294.54545446417546L73.6,294.54545446417546L73.2,294.54545446417546L72.8,294.54545446417546L72.39999999999999,294.54545446417546L72,294.54545446417546L71.6,294.54545446417546L71.2,294.54545446417546L70.8,294.54545446417546L70.39999999999999,294.54545446417546L70,294.54545446417546L69.6,294.54545446417546L69.19999999999999,294.54545446417546L68.8,294.54545446417546L68.4,294.54545446417546L68,294.54545446417546L67.60000000000001,294.54545446417546L67.2,294.54545446417546L66.8,294.54545446417546L66.4,294.54545446417546L66,294.54545446417546L65.60000000000001,294.54545446417546L65.2,294.54545446417546L64.8,294.54545446417546L64.4,294.54545446417546L64,294.54545446417546L63.6,294.54545446417546L63.2,294.54545446417546L62.8,294.54545446417546L62.4,294.54545446417546L62,294.54545446417546L61.6,294.54545446417546L61.199999999999996,294.54545446417546L60.8,300L60.4,300L60,300L59.599999999999994,300L59.199999999999996,300L58.8,300L58.4,300L57.99999999999999,300L57.599999999999994,300L57.199999999999996,300L56.8,300L56.39999999999999,300L56.00000000000001,300L55.60000000000001,300L55.2,300L54.800000000000004,300L54.400000000000006,300L54,300L53.6,300L53.2,300L52.800000000000004,300L52.400000000000006,300L52,300L51.6,300L51.2,300L50.8,300L50.4,300L50,300L49.6,300L49.2,300L48.8,300L48.4,300L48,300L47.599999999999994,300L47.199999999999996,300L46.800000000000004,300L46.400000000000006,300L46,300L45.6,300L45.2,300L44.800000000000004,300L44.4,300L44,300L43.6,300L43.2,300L42.8,300L42.4,300L42,300L41.6,300L41.199999999999996,300L40.8,300L40.400000000000006,300L40,300L39.6,300L39.2,300L38.800000000000004,300L38.4,300L38,300L37.6,300L37.2,300L36.8,300L36.4,300L36,300L35.6,300L35.199999999999996,300L34.8,300L34.4,300L34,300L33.6,300L33.2,300L32.800000000000004,300L32.4,300L32,300L31.6,300L31.2,300L30.8,300L30.4,300L30,300L29.599999999999998,300L29.2,300L28.799999999999997,300L28.4,300L28.000000000000004,300L27.6,300L27.200000000000003,300L26.8,300L26.400000000000002,300L26,300L25.6,300L25.2,300L24.8,300L24.4,300L24,300L23.599999999999998,300L23.200000000000003,300L22.8,300L22.400000000000002,300L22,300L21.6,300L21.2,300L20.8,300L20.4,300L20,300L19.6,300L19.2,300L18.8,300L18.4,300L18,300L17.599999999999998,300L17.2,300L16.8,300L16.400000000000002,300L16,300L15.6,300L15.2,300L14.799999999999999,300L14.399999999999999,300L14.000000000000002,300L13.600000000000001,300L13.200000000000001,300L12.8,300L12.4,300L12,300L11.600000000000001,300L11.200000000000001,300L10.8,300L10.4,300L10,300L9.6,300L9.2,300L8.799999999999999,300L8.4,300L8,300L7.6,300L7.199999999999999,300L6.800000000000001,300L6.4,300L6,300L5.6000000000000005,300L5.2,300L4.8,300L4.3999999999999995,300L4,300L3.5999999999999996,300L3.2,300L2.8000000000000003,300L2.4,300L2,300L1.6,300L1.2,300L0.8,300L0.4,300L0,300"
               style="fill: none; stroke: #4c78a8; stroke-width: 2;"
               id="path82" />
          </g>
          <g
             class="mark-text role-title"
             style="pointer-events: none;"
             id="g84">
            <text
               text-anchor="middle"
               transform="translate(175.78779296875,-13)"
               style="font-family: sans-serif; font-size: 13px; font-weight: bold; fill: #000; opacity: 1;"
               id="text86">Agent Training: First Run</text>
          </g>
          <g
             class="mark-group role-axis"
             id="g88">
            <g
               transform="translate(0.5,300.5)"
               id="g90">
              <path
                 class="background"
                 d="M0,0h0v0h0Z"
                 style="pointer-events: none; fill: none;"
                 id="path92" />
              <g
                 id="g94">
                <g
                   class="mark-rule role-axis-tick"
                   style="pointer-events: none;"
                   id="g96">
                  <line
                     transform="translate(0,0)"
                     x2="0"
                     y2="5"
                     style="fill: none; stroke: #888; stroke-width: 1; opacity: 1;"
                     id="line98" />
                  <line
                     transform="translate(40,0)"
                     x2="0"
                     y2="5"
                     style="fill: none; stroke: #888; stroke-width: 1; opacity: 1;"
                     id="line100" />
                  <line
                     transform="translate(80,0)"
                     x2="0"
                     y2="5"
                     style="fill: none; stroke: #888; stroke-width: 1; opacity: 1;"
                     id="line102" />
                  <line
                     transform="translate(120,0)"
                     x2="0"
                     y2="5"
                     style="fill: none; stroke: #888; stroke-width: 1; opacity: 1;"
                     id="line104" />
                  <line
                     transform="translate(160,0)"
                     x2="0"
                     y2="5"
                     style="fill: none; stroke: #888; stroke-width: 1; opacity: 1;"
                     id="line106" />
                  <line
                     transform="translate(200,0)"
                     x2="0"
                     y2="5"
                     style="fill: none; stroke: #888; stroke-width: 1; opacity: 1;"
                     id="line108" />
                  <line
                     transform="translate(240,0)"
                     x2="0"
                     y2="5"
                     style="fill: none; stroke: #888; stroke-width: 1; opacity: 1;"
                     id="line110" />
                  <line
                     transform="translate(280,0)"
                     x2="0"
                     y2="5"
                     style="fill: none; stroke: #888; stroke-width: 1; opacity: 1;"
                     id="line112" />
                  <line
                     transform="translate(320,0)"
                     x2="0"
                     y2="5"
                     style="fill: none; stroke: #888; stroke-width: 1; opacity: 1;"
                     id="line114" />
                  <line
                     transform="translate(360,0)"
                     x2="0"
                     y2="5"
                     style="fill: none; stroke: #888; stroke-width: 1; opacity: 1;"
                     id="line116" />
                  <line
                     transform="translate(400,0)"
                     x2="0"
                     y2="5"
                     style="fill: none; stroke: #888; stroke-width: 1; opacity: 1;"
                     id="line118" />
                </g>
                <g
                   class="mark-text role-axis-label"
                   style="pointer-events: none;"
                   id="g120">
                  <text
                     text-anchor="start"
                     transform="translate(0,15)"
                     style="font-family: sans-serif; font-size: 10px; fill: #000; opacity: 1;"
                     id="text122">0</text>
                  <text
                     text-anchor="middle"
                     transform="translate(40,15)"
                     style="font-family: sans-serif; font-size: 10px; fill: #000; opacity: 1;"
                     id="text124">100</text>
                  <text
                     text-anchor="middle"
                     transform="translate(80,15)"
                     style="font-family: sans-serif; font-size: 10px; fill: #000; opacity: 1;"
                     id="text126">200</text>
                  <text
                     text-anchor="middle"
                     transform="translate(120,15)"
                     style="font-family: sans-serif; font-size: 10px; fill: #000; opacity: 1;"
                     id="text128">300</text>
                  <text
                     text-anchor="middle"
                     transform="translate(160,15)"
                     style="font-family: sans-serif; font-size: 10px; fill: #000; opacity: 1;"
                     id="text130">400</text>
                  <text
                     text-anchor="middle"
                     transform="translate(200,15)"
                     style="font-family: sans-serif; font-size: 10px; fill: #000; opacity: 1;"
                     id="text132">500</text>
                  <text
                     text-anchor="middle"
                     transform="translate(240,15)"
                     style="font-family: sans-serif; font-size: 10px; fill: #000; opacity: 1;"
                     id="text134">600</text>
                  <text
                     text-anchor="middle"
                     transform="translate(280,15)"
                     style="font-family: sans-serif; font-size: 10px; fill: #000; opacity: 1;"
                     id="text136">700</text>
                  <text
                     text-anchor="middle"
                     transform="translate(320,15)"
                     style="font-family: sans-serif; font-size: 10px; fill: #000; opacity: 1;"
                     id="text138">800</text>
                  <text
                     text-anchor="middle"
                     transform="translate(360,15)"
                     style="font-family: sans-serif; font-size: 10px; fill: #000; opacity: 1;"
                     id="text140">900</text>
                  <text
                     text-anchor="end"
                     transform="translate(400,15)"
                     style="font-family: sans-serif; font-size: 10px; fill: #000; opacity: 1;"
                     id="text142">1,000</text>
                </g>
                <g
                   class="mark-rule role-axis-domain"
                   style="pointer-events: none;"
                   id="g144">
                  <line
                     transform="translate(0,0)"
                     x2="400"
                     y2="0"
                     style="fill: none; stroke: #888; stroke-width: 1; opacity: 1;"
                     id="line146" />
                </g>
                <g
                   class="mark-text role-axis-title"
                   style="pointer-events: none;"
                   id="g148">
                  <text
                     text-anchor="middle"
                     transform="translate(200,31)"
                     style="font-family: sans-serif; font-size: 11px; font-weight: bold; fill: #000; opacity: 1;"
                     id="text150">Training episodes</text>
                </g>
              </g>
            </g>
          </g>
          <g
             class="mark-group role-axis"
             id="g152">
            <g
               transform="translate(0.5,0.5)"
               id="g154">
              <path
                 class="background"
                 d="M0,0h0v0h0Z"
                 style="pointer-events: none; fill: none;"
                 id="path156" />
              <g
                 id="g158">
                <g
                   class="mark-rule role-axis-tick"
                   style="pointer-events: none;"
                   id="g160">
                  <line
                     transform="translate(0,300)"
                     x2="-5"
                     y2="0"
                     style="fill: none; stroke: #888; stroke-width: 1; opacity: 1;"
                     id="line162" />
                  <line
                     transform="translate(0,273)"
                     x2="-5"
                     y2="0"
                     style="fill: none; stroke: #888; stroke-width: 1; opacity: 1;"
                     id="line164" />
                  <line
                     transform="translate(0,245)"
                     x2="-5"
                     y2="0"
                     style="fill: none; stroke: #888; stroke-width: 1; opacity: 1;"
                     id="line166" />
                  <line
                     transform="translate(0,218)"
                     x2="-5"
                     y2="0"
                     style="fill: none; stroke: #888; stroke-width: 1; opacity: 1;"
                     id="line168" />
                  <line
                     transform="translate(0,191)"
                     x2="-5"
                     y2="0"
                     style="fill: none; stroke: #888; stroke-width: 1; opacity: 1;"
                     id="line170" />
                  <line
                     transform="translate(0,164)"
                     x2="-5"
                     y2="0"
                     style="fill: none; stroke: #888; stroke-width: 1; opacity: 1;"
                     id="line172" />
                  <line
                     transform="translate(0,136)"
                     x2="-5"
                     y2="0"
                     style="fill: none; stroke: #888; stroke-width: 1; opacity: 1;"
                     id="line174" />
                  <line
                     transform="translate(0,109)"
                     x2="-5"
                     y2="0"
                     style="fill: none; stroke: #888; stroke-width: 1; opacity: 1;"
                     id="line176" />
                  <line
                     transform="translate(0,82)"
                     x2="-5"
                     y2="0"
                     style="fill: none; stroke: #888; stroke-width: 1; opacity: 1;"
                     id="line178" />
                  <line
                     transform="translate(0,55)"
                     x2="-5"
                     y2="0"
                     style="fill: none; stroke: #888; stroke-width: 1; opacity: 1;"
                     id="line180" />
                  <line
                     transform="translate(0,27)"
                     x2="-5"
                     y2="0"
                     style="fill: none; stroke: #888; stroke-width: 1; opacity: 1;"
                     id="line182" />
                  <line
                     transform="translate(0,0)"
                     x2="-5"
                     y2="0"
                     style="fill: none; stroke: #888; stroke-width: 1; opacity: 1;"
                     id="line184" />
                </g>
                <g
                   class="mark-text role-axis-label"
                   style="pointer-events: none;"
                   id="g186">
                  <text
                     text-anchor="end"
                     transform="translate(-7,303)"
                     style="font-family: sans-serif; font-size: 10px; fill: #000; opacity: 1;"
                     id="text188">0.000</text>
                  <text
                     text-anchor="end"
                     transform="translate(-7,275.72727272727275)"
                     style="font-family: sans-serif; font-size: 10px; fill: #000; opacity: 1;"
                     id="text190">0.005</text>
                  <text
                     text-anchor="end"
                     transform="translate(-7,248.45454545454544)"
                     style="font-family: sans-serif; font-size: 10px; fill: #000; opacity: 1;"
                     id="text192">0.010</text>
                  <text
                     text-anchor="end"
                     transform="translate(-7,221.1818181818182)"
                     style="font-family: sans-serif; font-size: 10px; fill: #000; opacity: 1;"
                     id="text194">0.015</text>
                  <text
                     text-anchor="end"
                     transform="translate(-7,193.9090909090909)"
                     style="font-family: sans-serif; font-size: 10px; fill: #000; opacity: 1;"
                     id="text196">0.020</text>
                  <text
                     text-anchor="end"
                     transform="translate(-7,166.63636363636363)"
                     style="font-family: sans-serif; font-size: 10px; fill: #000; opacity: 1;"
                     id="text198">0.025</text>
                  <text
                     text-anchor="end"
                     transform="translate(-7,139.36363636363637)"
                     style="font-family: sans-serif; font-size: 10px; fill: #000; opacity: 1;"
                     id="text200">0.030</text>
                  <text
                     text-anchor="end"
                     transform="translate(-7,112.09090909090907)"
                     style="font-family: sans-serif; font-size: 10px; fill: #000; opacity: 1;"
                     id="text202">0.035</text>
                  <text
                     text-anchor="end"
                     transform="translate(-7,84.81818181818181)"
                     style="font-family: sans-serif; font-size: 10px; fill: #000; opacity: 1;"
                     id="text204">0.040</text>
                  <text
                     text-anchor="end"
                     transform="translate(-7,57.54545454545456)"
                     style="font-family: sans-serif; font-size: 10px; fill: #000; opacity: 1;"
                     id="text206">0.045</text>
                  <text
                     text-anchor="end"
                     transform="translate(-7,30.272727272727252)"
                     style="font-family: sans-serif; font-size: 10px; fill: #000; opacity: 1;"
                     id="text208">0.050</text>
                  <text
                     text-anchor="end"
                     transform="translate(-7,3)"
                     style="font-family: sans-serif; font-size: 10px; fill: #000; opacity: 1;"
                     id="text210">0.055</text>
                </g>
                <g
                   class="mark-rule role-axis-domain"
                   style="pointer-events: none;"
                   id="g212">
                  <line
                     transform="translate(0,300)"
                     x2="0"
                     y2="-300"
                     style="fill: none; stroke: #888; stroke-width: 1; opacity: 1;"
                     id="line214" />
                </g>
                <g
                   class="mark-text role-axis-title"
                   style="pointer-events: none;"
                   id="g216">
                  <text
                     text-anchor="middle"
                     transform="translate(-37.0244140625,150) rotate(-90) translate(0,-2)"
                     style="font-family: sans-serif; font-size: 11px; font-weight: bold; fill: #000; opacity: 1;"
                     id="text218">Average score (100 episodes)</text>
                </g>
              </g>
            </g>
          </g>
        </g>
      </g>
    </g>
  </g>
</svg>
